<svg id="Layer_1" data-name="Layer 1" xmlns="http://www.w3.org/2000/svg" xmlns:xlink="http://www.w3.org/1999/xlink" viewBox="0 0 3024 3024"><defs><style>.cls-1,.cls-3{fill:none;}.cls-2,.cls-8{fill:#fff;}.cls-10,.cls-3,.cls-4,.cls-9{stroke:#231f20;}.cls-11,.cls-3,.cls-4{stroke-miterlimit:10;}.cls-3{stroke-width:12px;}.cls-10,.cls-11,.cls-4,.cls-7,.cls-9{fill:#231f20;}.cls-4{stroke-width:8px;}.cls-5{fill:#931b23;}.cls-6{fill:#605e5f;}.cls-11,.cls-8{stroke:#fff;}.cls-10,.cls-8,.cls-9{stroke-linejoin:round;}.cls-8{stroke-width:35px;}.cls-9{stroke-width:7px;}.cls-11{stroke-width:17px;}.cls-12{clip-path:url(#clip-path);}</style><clipPath id="clip-path"><polygon class="cls-1" points="-373.23 1251.15 -443.88 1349.12 -443.31 1715.55 -346.26 1571.07 -248.1 1715.24 -248.67 1353.5 -310.37 1251.05 -341.89 1301.53 -373.23 1251.15"/></clipPath><symbol id="New_Symbol-2" data-name="New Symbol" viewBox="0 0 937.11 2083.01"><path class="cls-2" d="M127.54,1666.75a18,18,0,0,1-18-18l-.08-83.18a18,18,0,0,1,18-18l773.59-.74a18,18,0,0,1,18,18l.08,83.18a18,18,0,0,1-18,18Z"/><path class="cls-2" d="M901,1564.83l.08,83.18-773.57.74-.08-83.18,773.57-.74m0-36h0l-773.56.74a36,36,0,0,0-36,36l.08,83.18a36,36,0,0,0,36,36h0l773.57-.74a36,36,0,0,0,36-36l-.08-83.19a36,36,0,0,0-36-36Z"/><path class="cls-2" d="M205.91,1556.86a19,19,0,0,1-19-19L186.47,330A19,19,0,0,1,192,316.59l96.48-96.38A19,19,0,0,1,302,214.66l422.59.86a19,19,0,0,1,13.39,5.56l95.27,95.2a19,19,0,0,1,5.57,13.43l.44,1207.92a19,19,0,0,1-19,19Z"/><path class="cls-2" d="M302,233.66l422.55.86,95.27,95.2.44,1207.92-614.3.22L205.47,330,302,233.66m0-38a38,38,0,0,0-26.86,11.11l-96.47,96.38a38,38,0,0,0-11.15,26.9l.44,1207.83a38,38,0,0,0,38,38h0l614.3-.22a38,38,0,0,0,38-38l-.44-1207.91a38,38,0,0,0-11.14-26.87l-95.27-95.2a38,38,0,0,0-26.78-11.12L302,195.66Z"/><polyline class="cls-3" points="125.58 1565.17 906.6 1566.53 907.24 1655.99"/><circle class="cls-4" cx="515.56" cy="575.62" r="44.7"/><path class="cls-5" d="M528.71,502.87l-4.66-2.12c4.64-103.11-39.38-117.53-39.38-117.53-52.83-15.2-109.86,44.33-109.86,44.33,55.46,17.55,98.61,87.33,98.61,87.33l-4.25,3.85c-69.62-76.2-110.94-55.26-110.94-55.26-48.11,26.61-46.34,109-46.34,109,51.62-26.8,131.48-8,131.48-8l-2.68,2.62c-103.11-4.65-117.53,39.37-117.53,39.37-15.2,52.84,44.33,109.87,44.33,109.87,17.55-55.46,87.33-98.62,87.33-98.62l1.8,4.81c-76.2,69.62-55.26,110.94-55.26,110.94,26.61,48.11,109,46.34,109,46.34-26.81-51.63-8-131.48-8-131.48l4.67,2.12C502.43,753.6,546.45,768,546.45,768c52.84,15.2,109.87-44.33,109.87-44.33-55.46-17.55-98.62-87.33-98.62-87.33l4.81-1.8c69.62,76.2,110.94,55.26,110.94,55.26,48.11-26.61,46.34-109,46.34-109-51.62,26.81-131.48,8-131.48,8l2.13-4.67C693.55,588.75,708,544.73,708,544.73c15.2-52.84-44.33-109.86-44.33-109.86-17.55,55.45-87.33,98.61-87.33,98.61l-1.8-4.81c76.2-69.62,55.26-110.94,55.26-110.94-26.61-48.11-109-46.34-109-46.34C547.54,423,528.71,502.87,528.71,502.87ZM576.56,559A63.21,63.21,0,1,1,499,514.63,63.21,63.21,0,0,1,576.56,559Z"/><circle class="cls-4" cx="515.59" cy="1124.06" r="44.7"/><path class="cls-6" d="M589.51,1124.8l1.31-5c102.43-12.75,109.24-58.57,109.24-58.57,6.11-54.63-62.16-100.85-62.16-100.85-8,57.62-69.52,111.89-69.52,111.89l-4.5-3.54c63.41-81.44,35.83-118.65,35.83-118.65-34.32-43-115.27-27.36-115.27-27.36,35.1,46.39,30,128.27,30,128.27l-3-2.21C498.62,946.4,452.8,939.59,452.8,939.59,398.17,933.48,352,1001.75,352,1001.75c57.62,8,111.89,69.52,111.89,69.52l-4.43,2.57C378,1010.43,340.75,1038,340.75,1038c-42.95,34.31-27.36,115.26-27.36,115.26,46.39-35.1,128.28-30,128.28-30l-1.32,5c-102.42,12.75-109.23,58.56-109.23,58.56-6.11,54.64,62.16,100.86,62.16,100.86,8-57.62,69.52-111.89,69.52-111.89l2.57,4.43c-63.41,81.44-35.83,118.66-35.83,118.66,34.32,42.95,115.27,27.36,115.27,27.36-35.1-46.39-30-128.28-30-128.28l5,1.31c12.75,102.43,58.56,109.24,58.56,109.24,54.64,6.11,100.86-62.16,100.86-62.16-57.62-8-111.89-69.52-111.89-69.52l4.43-2.58c81.44,63.42,118.65,35.83,118.65,35.83,43-34.31,27.37-115.26,27.37-115.26C671.4,1129.94,589.51,1124.8,589.51,1124.8Zm-47.31,56.6a63.21,63.21,0,1,1,30.73-84A63.22,63.22,0,0,1,542.2,1181.4Z"/><path class="cls-7" d="M36,2072a11,11,0,0,1-11-11l-.57-366.43a11,11,0,0,1,2.07-6.45L95,1593.06,92.92,248.67,22,248.78a11,11,0,0,1-9.8-16L122.27,17A11,11,0,0,1,132,11h.12a11,11,0,0,1,9.69,5.8L257.45,232.22a11,11,0,0,1-9.67,16.21l-70,.11,2.11,1344.91L240,1693.29a11.05,11.05,0,0,1,1.58,5.66l.57,361.74a11,11,0,0,1-7.76,10.52,10.68,10.68,0,0,1-3.24.5,11,11,0,0,1-9.1-4.82l-89-130.72-88,131A11,11,0,0,1,36,2072Z"/><path class="cls-2" d="M132.07,22,247.76,237.43l-81,.12,2.14,1359L230.6,1699l.57,361.73L133,1916.53,36,2061l-.57-366.43,70.64-98-2.13-1359-81.9.13L132.07,22m0-22h-.23a22,22,0,0,0-19.37,12L2.4,227.78a22,22,0,0,0,19.6,32h0l59.9-.09L84,1589.52l-66.48,92.2a22,22,0,0,0-4.15,12.9L14,2061.05a22,22,0,0,0,40.26,12.23l78.91-117.48L213,2073.09a22,22,0,0,0,18.19,9.62,21.72,21.72,0,0,0,6.49-1,22,22,0,0,0,15.51-21l-.57-361.74a22,22,0,0,0-3.16-11.31l-58.55-97.24L188.8,259.52l59-.09A22,22,0,0,0,267.14,227L151.45,11.59A22,22,0,0,0,132.07,0Z"/><path class="cls-4" d="M205.47,330l.44,1207.83,614.3-.22-.44-1207.92-95.27-95.2L302,233.66Zm542.08,792c.05,126.91-102.8,229.83-229.7,229.87S288,1249.08,288,1122.17,390.77,892.35,517.68,892.3,747.5,995.1,747.55,1122Zm3.88-550.47c.05,129.17-104.62,233.91-233.78,234s-233.91-104.62-234-233.78,104.62-233.92,233.78-234S751.39,442.37,751.43,571.53Z"/><polygon class="cls-2" points="132.07 41.15 22 256.93 103.9 256.8 103.93 278.48 166.79 278.48 166.76 256.7 247.76 256.57 132.07 41.15"/><polygon class="cls-6" points="132.07 22 22 237.78 103.9 237.65 103.93 259.33 166.79 259.33 166.76 237.55 247.76 237.43 132.07 22"/><polygon class="cls-2" points="106.03 1566.61 35.38 1664.58 35.96 2031.01 133.01 1886.53 231.17 2030.7 230.6 1668.96 168.9 1566.51 137.38 1616.99 106.03 1566.61"/><polygon class="cls-5" points="106.03 1596.61 35.38 1694.58 35.96 2061.01 133.01 1916.53 231.17 2060.7 230.6 1698.96 168.9 1596.51 137.38 1646.99 106.03 1596.61"/></symbol><symbol id="final" data-name="final" viewBox="0 0 550.66 1180.36"><use width="937.11" height="2083.01" transform="translate(19.64) scale(0.57)" xlink:href="#New_Symbol-2"/><path class="cls-7" d="M384.21,193.74c3.21,0,3.22-5,0-5s-3.23,5,0,5Z"/><path class="cls-7" d="M371.27,194.92c3.22,0,3.22-5,0-5s-3.22,5,0,5Z"/><path class="cls-8" d="M91,758.88l.24,23.57,19.67,5.79.12,11.44L33.23,775.59l-.11-10.68,77.34-23,.12,11.43Zm-8.36,21-.2-18.64L51,770.21v.32Z"/><path class="cls-8" d="M61.46,708l-.21,4.77a8.42,8.42,0,0,0,2.11,5.78,13.32,13.32,0,0,0,5.82,3.58l41.08.22.11,11.05-57.65-.3L52.61,723l8.52-.71a19,19,0,0,1-7.11-5,10.71,10.71,0,0,1-2.6-7,9.1,9.1,0,0,1,.16-1.92,11.46,11.46,0,0,1,.44-1.6Z"/><path class="cls-8" d="M37.83,679.53l14.33.07-.09-9.15,7.73,0,.09,9.15,34.32.19q4.47,0,6.35-1.35a4.27,4.27,0,0,0,1.86-3.65,9.67,9.67,0,0,0-.18-1.74c-.11-.54-.28-1.17-.5-1.89l7.45-1.1a18.16,18.16,0,0,1,1.73,7.48q.06,6.34-3.92,9.85t-12.68,3.45L60,690.7l.08,7.75-7.73,0-.08-7.75-14.34-.08Z"/><path class="cls-8" d="M110.48,635.27q.12,11-7.71,17.11t-20.45,6.09H79.81q-12.68-.06-20.87-6.29A19.67,19.67,0,0,1,50.65,636q-.1-10,6.82-15.22t18.71-5.13l6.07,0,.33,31.82q8.85,0,14.3-3.15t5.39-9.86a21.13,21.13,0,0,0-1.5-8,20.87,20.87,0,0,0-4.19-6.31l6.67-3.54a23.78,23.78,0,0,1,5.09,7.75A27.91,27.91,0,0,1,110.48,635.27ZM59,636a8.81,8.81,0,0,0,4.42,7.6,25.94,25.94,0,0,0,11.52,3.59l-.21-20.76H73.46q-6.49,0-10.52,2.3A7.71,7.71,0,0,0,59,636Z"/><path class="cls-8" d="M51.25,591.18l7.83-.56a18.54,18.54,0,0,1-6.65-6.24,16.51,16.51,0,0,1-2.4-8.76,13.59,13.59,0,0,1,2.55-8.44,15.38,15.38,0,0,1,8-5.32,20.27,20.27,0,0,1-7.9-6.25,15.22,15.22,0,0,1-2.91-9.15,13.72,13.72,0,0,1,6-12q6.06-4.32,18.53-4.26l34.05.18.11,11.05-34.1-.18q-9,0-12.58,2.21a7.39,7.39,0,0,0-3.53,6.76A8.51,8.51,0,0,0,61,556.63a17.07,17.07,0,0,0,7.34,3.8l2-.09c.69,0,1.39-.05,2.1-.05l36.13.19.11,11-34.1-.18q-8.68-.06-12.42,2.26a7.36,7.36,0,0,0-3.69,6.75,9.83,9.83,0,0,0,2,6.08,13,13,0,0,0,5.32,3.93l43.11.23.11,11.06-57.65-.31Z"/><path class="cls-8" d="M35.19,501.25l.12,11.06L25,512.25l-.12-11.05Zm72.79.39.12,11.05-57.66-.3-.11-11.06Z"/><path class="cls-8" d="M93,456a7.49,7.49,0,0,0-5.59,2.25q-2.25,2.26-5,8.7-3.27,9-7.16,13.51a12.67,12.67,0,0,1-10.08,4.44,14.73,14.73,0,0,1-11.41-5.5q-4.74-5.47-4.83-14.2-.11-9,5-14.55a15.45,15.45,0,0,1,12.39-5.25l.32.11.11,10.63a10.52,10.52,0,0,0-7,2.42,8.15,8.15,0,0,0-2.89,6.68,9.14,9.14,0,0,0,2.39,6.6,7.45,7.45,0,0,0,5.43,2.38,6.62,6.62,0,0,0,5.18-2q1.86-2,4.78-8.67,3.11-9.19,7.27-13.81a13.45,13.45,0,0,1,10.5-4.58,14.56,14.56,0,0,1,11.75,5.67q4.58,5.64,4.66,14.74.1,9.87-5.25,15.5a15.84,15.84,0,0,1-12.6,5.32l-.32-.11L90.45,476q5.6-.18,8-3.18a11.16,11.16,0,0,0,2.4-7.49,10,10,0,0,0-2.28-6.87A7.37,7.37,0,0,0,93,456Z"/><path class="cls-8" d="M20.16,418.17l-.23-23q-.11-9.31,1.29-14.33a15.72,15.72,0,0,1,4.08-7.51A14,14,0,0,1,31.84,370a57.91,57.91,0,0,1,12-.83l7.51,0q8.27,0,12.06,1.8a12.05,12.05,0,0,1,5.87,6.4q2.08,4.65,2.15,12.12l.07,6.13,34.74.18.24,22.81Zm14.53-22.74,22,.12c0-.65,0-1.21,0-1.68,0-2.1-.54-3.55-1.56-4.37s-3.13-1.24-6.33-1.26l-7.09,0q-4.43,0-5.74,1.38T34.69,395.43Z"/><path class="cls-8" d="M56.6,308.83l.24,22.82-15-.08q-6.54,0-8.15.69t-1.59,3.21c0,1.88.69,3.08,2,3.59s4.16.78,8.53.8l40.07.21q6.3,0,8.2-.71c1.28-.5,1.9-1.63,1.88-3.4a3.26,3.26,0,0,0-2-3.35q-1.94-.8-9-.83L71,331.72l-.24-22.81h3.36q13.4.07,19,2t9.91,8.56q4.27,6.6,4.38,16.25.1,10-3.4,16.51a17.08,17.08,0,0,1-9.79,8.57q-6.3,2.07-19,2L50,362.71A110.25,110.25,0,0,1,36,362a19.8,19.8,0,0,1-9-3.92,22.06,22.06,0,0,1-6.88-9,33,33,0,0,1-2.62-13.15q-.11-10.08,3.66-16.62t9.47-8.57q5.7-2,17.78-2Z"/><path class="cls-8" d="M56.64,256l.2,19.4-3.83,0q-4.9,0-6.21.54c-.86.37-1.29,1.32-1.27,2.83a3.31,3.31,0,0,0,1.22,2.77,5.87,5.87,0,0,0,3.61.94,17.6,17.6,0,0,0,4.77-.43,7.38,7.38,0,0,0,3.3-2.75,59.24,59.24,0,0,0,5.18-9.43q4.48-9.51,8.5-12.47t11.74-2.92q8.64,0,13.06,2.35a15.34,15.34,0,0,1,6.84,7.65,31.78,31.78,0,0,1,2.51,12.88,35.9,35.9,0,0,1-2.41,14.27q-2.5,5.91-6.85,8.12t-13.19,2.15l-3.41,0-.2-19.4,4.48,0c3.8,0,6.26-.21,7.4-.69a2.78,2.78,0,0,0,1.67-2.89,4,4,0,0,0-1.18-3.26c-.77-.61-2.38-.93-4.83-.94q-5.05,0-6.33,1.16T74,288.59q-5.24,9.62-9.55,11.71a23.19,23.19,0,0,1-10.29,2.06q-8.47,0-12.52-2.34a15.07,15.07,0,0,1-6.29-7.76A34.2,34.2,0,0,1,33,279.59a36.31,36.31,0,0,1,1.66-12.15,18.33,18.33,0,0,1,4.64-7.67,12.52,12.52,0,0,1,5.4-3.23,38.81,38.81,0,0,1,7.83-.52Z"/><path class="cls-9" d="M89.3,759l.06,23.67,20,5.66,0,11.48L30.26,776.26l0-10.72,79-23.76,0,11.48Zm-8.69,21.19,0-18.72-32.12,9.23V771Z"/><path class="cls-9" d="M59.57,708.22,59.31,713a8.33,8.33,0,0,0,2.11,5.79,13.44,13.44,0,0,0,5.9,3.55l41.87-.11,0,11.1-58.76.15,0-10.18,8.69-.78a18.92,18.92,0,0,1-7.21-5,10.51,10.51,0,0,1-2.59-7,9.11,9.11,0,0,1,.18-1.93A11.52,11.52,0,0,1,50,707Z"/><path class="cls-9" d="M35.71,679.78l14.61,0,0-9.19,7.87,0,0,9.19,35-.09q4.56,0,6.49-1.4a4.33,4.33,0,0,0,1.92-3.68,9.69,9.69,0,0,0-.17-1.74c-.11-.54-.28-1.17-.5-1.9l7.6-1.16a18,18,0,0,1,1.24,3.5,17.59,17.59,0,0,1,.47,4q0,6.36-4.08,9.91T93.2,690.73l-35,.09,0,7.78-7.88,0,0-7.78-14.61,0Z"/><path class="cls-9" d="M50.09,591l8-.61a18.34,18.34,0,0,1-6.73-6.22A16.23,16.23,0,0,1,49,575.36a13.79,13.79,0,0,1,2.66-8.49,16.13,16.13,0,0,1,8.16-5.41,20.14,20.14,0,0,1-8-6.21,15,15,0,0,1-2.9-9.15A14,14,0,0,1,55.08,534q6.21-4.39,18.91-4.43l34.71-.09,0,11.1L74,540.7q-9.18,0-12.84,2.32a7.52,7.52,0,0,0-3.65,6.81,8.33,8.33,0,0,0,2.84,6.38A17.19,17.19,0,0,0,67.77,560l2-.11c.71,0,1.42-.06,2.14-.06l36.82-.09,0,11-34.75.09c-5.9,0-10.13.81-12.68,2.37A7.5,7.5,0,0,0,57.56,580a9.63,9.63,0,0,0,2,6.09,12.94,12.94,0,0,0,5.39,3.9l43.93-.11,0,11.1-58.76.15Z"/><path class="cls-9" d="M34.44,500.82l0,11.1-10.54,0,0-11.1Zm74.18-.19,0,11.1-58.76.15,0-11.1Z"/><path class="cls-9" d="M93.68,454.92a7.85,7.85,0,0,0-5.72,2.3q-2.31,2.29-5.17,8.78-3.39,9.09-7.4,13.62a13.21,13.21,0,0,1-10.31,4.54,14.81,14.81,0,0,1-11.58-5.44q-4.8-5.46-4.82-14.21,0-9.09,5.21-14.65a16.1,16.1,0,0,1,12.66-5.37l.33.11,0,10.67a10.9,10.9,0,0,0-7.19,2.49,8.23,8.23,0,0,0-3,6.73,9,9,0,0,0,2.38,6.6,7.55,7.55,0,0,0,5.52,2.35,6.93,6.93,0,0,0,5.29-2.05q1.92-2.06,4.94-8.75,3.24-9.25,7.52-13.92a14,14,0,0,1,10.74-4.67,14.62,14.62,0,0,1,11.93,5.6q4.6,5.61,4.63,14.75,0,9.92-5.47,15.6a16.51,16.51,0,0,1-12.89,5.45l-.32-.11,0-10.28q5.7-.22,8.22-3.26a11.36,11.36,0,0,0,2.51-7.54,9.86,9.86,0,0,0-2.27-6.87A7.43,7.43,0,0,0,93.68,454.92Z"/><path class="cls-10" d="M19.78,417.53l-.06-23.07q0-9.36,1.43-14.39a16.13,16.13,0,0,1,4.22-7.58,14.45,14.45,0,0,1,6.7-3.44,59.22,59.22,0,0,1,12.19-.93l7.65,0q8.43,0,12.28,1.71a11.9,11.9,0,0,1,5.94,6.38c1.38,3.09,2.08,7.15,2.09,12.15l0,6.15,35.41-.09,0,22.9Zm15-22.95,22.37-.05c0-.66,0-1.22,0-1.69,0-2.1-.52-3.56-1.56-4.38s-3.18-1.21-6.44-1.2l-7.22,0c-3,0-5,.48-5.86,1.43S34.76,391.61,34.77,394.58Z"/><path class="cls-10" d="M57.79,307.47l.05,22.9-15.28,0q-6.66,0-8.31.76t-1.65,3.24c0,1.88.68,3.08,2,3.58s4.24.75,8.69.74l40.84-.1q6.41,0,8.36-.79c1.3-.51,1.95-1.65,1.95-3.43a3.23,3.23,0,0,0-2-3.34c-1.31-.52-4.38-.78-9.2-.76l-11.05,0-.06-22.9H75.6q13.65,0,19.37,1.88t10,8.52q4.31,6.6,4.34,16.28,0,10.06-3.6,16.6a17.69,17.69,0,0,1-10,8.68q-6.43,2.13-19.36,2.17l-25.68.07A114.53,114.53,0,0,1,36.39,361a20,20,0,0,1-9.16-3.87,21.71,21.71,0,0,1-6.95-8.95A32.7,32.7,0,0,1,17.72,335q0-10.12,3.87-16.71t9.71-8.68q5.82-2.09,18.13-2.11Z"/><path class="cls-10" d="M58.25,254.47l0,19.47H54.39q-5,0-6.33.59c-.88.38-1.33,1.34-1.32,2.86A3.24,3.24,0,0,0,48,280.17a6.09,6.09,0,0,0,3.67.92,18.63,18.63,0,0,0,4.85-.48,7.63,7.63,0,0,0,3.39-2.78,60.6,60.6,0,0,0,5.35-9.51q4.65-9.58,8.77-12.59t12-3q8.81,0,13.29,2.25a15.17,15.17,0,0,1,6.91,7.62,31.28,31.28,0,0,1,2.45,12.92,35.52,35.52,0,0,1-2.57,14.34q-2.58,6-7,8.21t-13.46,2.26H82.1l0-19.48h4.56q5.81,0,7.55-.75a2.87,2.87,0,0,0,1.73-2.92,4,4,0,0,0-1.18-3.26c-.78-.61-2.42-.92-4.92-.91q-5.16,0-6.46,1.21T75.65,287q-5.4,9.69-9.82,11.83A24.14,24.14,0,0,1,55.32,301q-8.62,0-12.74-2.26A14.8,14.8,0,0,1,36.24,291,33.33,33.33,0,0,1,34,278.3a36,36,0,0,1,1.79-12.22,18.8,18.8,0,0,1,4.78-7.73,12.88,12.88,0,0,1,5.53-3.28,39.82,39.82,0,0,1,8-.59Z"/><path class="cls-9" d="M110.11,634.77q0,11-8,17.24t-20.9,6.28H78.67q-12.93,0-21.22-6.15A19.35,19.35,0,0,1,49.12,636q0-10.07,7.08-15.33t19.1-5.3l6.19,0,.08,31.94q9,0,14.6-3.28a10.69,10.69,0,0,0,5.57-9.94,19.32,19.32,0,0,0-5.68-14.35l6.83-3.61a23.75,23.75,0,0,1,5.13,7.74A27.67,27.67,0,0,1,110.11,634.77ZM57.6,635.94a8.63,8.63,0,0,0,4.44,7.6q4.44,2.82,11.71,3.51l0-20.84H72.45q-6.63,0-10.75,2.39A7.87,7.87,0,0,0,57.6,635.94Z"/><path class="cls-2" d="M99.64,380.49c7.41-.08,15.3-1.86,16.54-10.41l-4.91-.66-1,9.08,3.76-2.16a20.55,20.55,0,0,1-7-8l-.9,3.42c-.5.28,2.89,5.53,3.4,6,1.65,1.65,5.13,0,4.18-2.43a26.71,26.71,0,0,0-2.75-5.34l-3.92,3c4.64,3.94,8,8.82,11.36,13.86l3.92-3a31.79,31.79,0,0,0-7.37-5.74L113,382.74l1.6.82c2.56,1.95,5.06-2.39,2.53-4.32a5.86,5.86,0,0,0-2.8-1.32c-2.71-.7-4.43,3.15-1.93,4.57a27.41,27.41,0,0,1,6.37,5c1.93,2,5.51-.63,3.92-3-3.55-5.38-7.18-10.67-12.14-14.87-2-1.71-5.62.51-3.92,3a21.2,21.2,0,0,1,2.24,4.14L113,374.3c-2-2-1.68-5.07-4.16-6.73a4.78,4.78,0,0,0-5.3-.09,2.55,2.55,0,0,0-.9,3.42,25.91,25.91,0,0,0,8.83,9.76c1.74,1.16,3.58-.44,3.77-2.16l1-9.08c.31-2.78-4.51-3.46-4.91-.67-.9,6.24-6.46,6.68-11.72,6.74-3.22,0-3.22,5,0,5Z"/><path class="cls-2" d="M112.24,430.64a15.51,15.51,0,0,0-.51,5.63l3.17-2.41.69.58a2.56,2.56,0,0,0-3.42-.9,2.52,2.52,0,0,0-.9,3.42,3.94,3.94,0,0,0,2.3,1.72,2.51,2.51,0,0,0,3.16-2.41,11.53,11.53,0,0,1,.33-4.3c.85-3.11-4-4.43-4.82-1.33Z"/><path class="cls-2" d="M115.15,708.5l2.16-4.2-3.92.5c-.14-.15-.17-.28,0,0-.09-.18-.1-.34,0-.06s0,.07,0-.09c0,.08-.07.63,0,.26s0,.08-.06.14c-.12.34.18-.37,0-.06s.28-.27,0-.05.49-.29,0,0a2.5,2.5,0,1,0,2.52,4.32,5.23,5.23,0,0,0,1.13-8,2.51,2.51,0,0,0-3.92.5L110.83,706a2.57,2.57,0,0,0,.9,3.42,2.53,2.53,0,0,0,3.42-.9Z"/><path class="cls-2" d="M111.28,770.67a4.8,4.8,0,0,1,3.13.14c.64.26,2.18,1.29,2.17,1.79l.34-1.26c.18-.05.16,0-.06.07s-.43.23-.65.33l-.46.14c.9.37.86,1.15-.15,2.37h-1.32l.35.07c3.14.64,4.49-4.18,1.33-4.82a3.62,3.62,0,0,0-3.64,5.82c2.08,2.47,6.15,1.65,8.22-.45,2.49-2.51,0-5.9-2.21-7.52a9.8,9.8,0,0,0-8.38-1.5c-3.1.84-1.78,5.67,1.33,4.82Z"/></symbol></defs><title>final logo 1</title><polygon class="cls-11" points="133.54 -393.46 1275.9 -1418.03 1329.98 -1357.73 1434.21 -1606.15 1179.25 -1525.8 1233.93 -1464.83 91.57 -440.26 -37.97 -419.19 -345.99 -142.93 -159.72 -179.33 -215.66 2.39 88.42 -270.33 133.54 -393.46"/><g class="cls-12"><path class="cls-2" d="M-351.73,1321.29a18,18,0,0,1-18-18l-.08-83.18a18,18,0,0,1,5.26-12.73,18,18,0,0,1,12.72-5.29l773.59-.74a18,18,0,0,1,18,18l.08,83.18a18,18,0,0,1-18,18Z"/><path class="cls-2" d="M421.76,1219.37l.08,83.18-773.57.74-.08-83.18,773.57-.74m0-36h0l-773.57.74a36,36,0,0,0-36,36l.08,83.18a36,36,0,0,0,10.57,25.44,36,36,0,0,0,25.43,10.52h0l773.56-.74a36,36,0,0,0,36-36l-.08-83.18a36,36,0,0,0-36-36Z"/><path class="cls-2" d="M-273.35,1211.4a19,19,0,0,1-13.43-5.56,19,19,0,0,1-5.57-13.43L-292.8-15.42a19,19,0,0,1,5.58-13.45l96.47-96.38a19,19,0,0,1,13.43-5.56l422.59.87a19,19,0,0,1,13.39,5.56l95.27,95.2a19,19,0,0,1,5.57,13.43l.44,1207.92a19,19,0,0,1-19,19Z"/><path class="cls-2" d="M-177.32-111.81l422.55.87,95.27,95.2.44,1207.92-614.29.22L-273.8-15.43l96.48-96.38m0-38a38,38,0,0,0-26.86,11.12l-96.47,96.38A38,38,0,0,0-311.8-15.42l.45,1207.83a38,38,0,0,0,11.14,26.87,38,38,0,0,0,26.86,11.12h0l614.3-.22a38,38,0,0,0,38-38L378.5-15.75a38,38,0,0,0-11.14-26.87l-95.27-95.2a38,38,0,0,0-26.78-11.12l-422.55-.87Z"/><polyline class="cls-3" points="-353.69 1219.71 427.33 1221.07 427.97 1310.53"/><circle class="cls-4" cx="36.29" cy="230.16" r="44.7"/><path class="cls-5" d="M49.45,157.41l-4.67-2.13C49.43,52.17,5.4,37.76,5.4,37.76c-52.83-15.2-109.86,44.33-109.86,44.33C-49,99.64-5.85,169.42-5.85,169.42l-4.24,3.84C-79.72,97.07-121,118-121,118c-48.11,26.61-46.34,109-46.34,109,51.63-26.8,131.49-8,131.49-8l-2.69,2.62C-141.69,217-156.1,261.05-156.1,261.05c-15.21,52.83,44.32,109.86,44.32,109.86,17.55-55.45,87.34-98.61,87.34-98.61l1.79,4.8c-76.2,69.63-55.26,111-55.26,111,26.61,48.11,109,46.34,109,46.34-26.8-51.63-8-131.49-8-131.49L27.81,305C23.16,408.14,67.19,422.56,67.19,422.56c52.83,15.2,109.86-44.33,109.86-44.33-55.46-17.55-98.62-87.33-98.62-87.33l4.81-1.8c69.62,76.2,110.94,55.26,110.94,55.26,48.11-26.61,46.35-109,46.35-109-51.63,26.81-131.49,8-131.49,8l2.13-4.67c103.11,4.65,117.52-39.37,117.52-39.37,15.2-52.84-44.32-109.87-44.32-109.87C166.81,144.86,97,188,97,188l-1.79-4.81C171.43,113.59,150.5,72.27,150.5,72.27c-26.61-48.11-109-46.34-109-46.34C68.27,77.55,49.45,157.41,49.45,157.41Zm47.84,56.15a63.21,63.21,0,1,1-77.59-44.4A63.21,63.21,0,0,1,97.29,213.56Z"/><circle class="cls-4" cx="36.32" cy="778.6" r="44.7"/><path class="cls-6" d="M110.24,779.34l1.32-5C214,761.63,220.79,715.81,220.79,715.81,226.9,661.17,158.63,615,158.63,615c-8,57.62-69.52,111.89-69.52,111.89l-4.5-3.54c63.41-81.44,35.83-118.65,35.83-118.65C86.12,561.7,5.17,577.29,5.17,577.29c35.1,46.39,30,128.28,30,128.28l-3-2.21C19.35,600.94-26.46,594.13-26.46,594.13-81.1,588-127.32,656.29-127.32,656.29c57.62,8,111.89,69.52,111.89,69.52l-4.43,2.57C-101.3,665-138.52,692.55-138.52,692.55c-42.95,34.32-27.36,115.27-27.36,115.27,46.39-35.1,128.28-30,128.28-30l-1.31,5c-102.43,12.74-109.24,58.56-109.24,58.56C-154.26,896-86,942.24-86,942.24c8-57.62,69.52-111.89,69.52-111.89l2.58,4.43c-63.42,81.44-35.83,118.65-35.83,118.65,34.31,43,115.26,27.37,115.26,27.37-35.1-46.39-30-128.28-30-128.28l5,1.31C53.29,956.26,99.11,963.07,99.11,963.07,153.74,969.17,200,900.91,200,900.91c-57.62-8-111.89-69.52-111.89-69.52l4.43-2.58c81.44,63.42,118.66,35.83,118.66,35.83,43-34.31,27.36-115.26,27.36-115.26C192.13,784.47,110.24,779.34,110.24,779.34Zm-47.31,56.6a63.21,63.21,0,1,1,30.73-84A63.22,63.22,0,0,1,62.93,835.94Z"/><path class="cls-4" d="M-273.8-15.43l.45,1207.83,614.29-.22L340.5-15.74l-95.27-95.2-422.55-.87Zm542.08,792c.05,126.91-102.79,229.83-229.7,229.87s-229.83-102.79-229.87-229.7S-88.5,546.89,38.41,546.84,268.23,649.63,268.28,776.54Zm3.88-550.47c0,129.17-104.62,233.91-233.78,234s-233.91-104.62-234-233.79S-91-7.67,38.21-7.71,272.12,96.91,272.16,226.07Z"/></g><use width="550.66" height="1180.36" transform="translate(933 345.87) scale(2.1)" xlink:href="#final"/></svg>