<?xml version="1.0" encoding="UTF-8" standalone="no"?>
<svg
   xmlns:dc="http://purl.org/dc/elements/1.1/"
   xmlns:cc="http://creativecommons.org/ns#"
   xmlns:rdf="http://www.w3.org/1999/02/22-rdf-syntax-ns#"
   xmlns:svg="http://www.w3.org/2000/svg"
   xmlns="http://www.w3.org/2000/svg"
   xmlns:xlink="http://www.w3.org/1999/xlink"
   xmlns:sodipodi="http://sodipodi.sourceforge.net/DTD/sodipodi-0.dtd"
   xmlns:inkscape="http://www.inkscape.org/namespaces/inkscape"
   id="Layer_1"
   data-name="Layer 1"
   viewBox="0 0 806.53693 1129.4341"
   version="1.1"
   sodipodi:docname="logo_plain.svg"
   width="806.53693"
   height="1129.4341"
   inkscape:version="1.0 (4035a4fb49, 2020-05-01)">
  <metadata
     id="metadata117">
    <rdf:RDF>
      <cc:Work
         rdf:about="">
        <dc:format>image/svg+xml</dc:format>
        <dc:type
           rdf:resource="http://purl.org/dc/dcmitype/StillImage" />
        <dc:title>final logo 2</dc:title>
      </cc:Work>
    </rdf:RDF>
  </metadata>
  <sodipodi:namedview
     inkscape:document-rotation="0"
     pagecolor="#ffffff"
     bordercolor="#666666"
     borderopacity="1"
     objecttolerance="10"
     gridtolerance="10"
     guidetolerance="10"
     inkscape:pageopacity="0"
     inkscape:pageshadow="2"
     inkscape:window-width="1920"
     inkscape:window-height="1017"
     id="namedview115"
     showgrid="false"
     inkscape:pagecheckerboard="true"
     borderlayer="false"
     fit-margin-top="0"
     fit-margin-left="0"
     fit-margin-right="0"
     fit-margin-bottom="0"
     inkscape:zoom="0.39751374"
     inkscape:cx="1266.9008"
     inkscape:cy="541.92493"
     inkscape:window-x="-8"
     inkscape:window-y="88"
     inkscape:window-maximized="1"
     inkscape:current-layer="Layer_1" />
  <defs
     id="defs40">
    <style
       id="style2">.cls-1,.cls-3{fill:none;}.cls-10,.cls-2{fill:#fff;}.cls-11,.cls-12,.cls-3,.cls-4{stroke:#231f20;}.cls-3,.cls-4,.cls-8{stroke-miterlimit:10;}.cls-3{stroke-width:12px;}.cls-11,.cls-12,.cls-4,.cls-7,.cls-8{fill:#231f20;}.cls-4{stroke-width:8px;}.cls-5{fill:#931b23;}.cls-6{fill:#605e5f;}.cls-10,.cls-8{stroke:#fff;}.cls-8{stroke-width:17px;}.cls-9{clip-path:url(#clip-path);}.cls-10,.cls-11,.cls-12{stroke-linejoin:round;}.cls-10{stroke-width:76px;}.cls-11{stroke-width:7px;}</style>
    <clipPath
       id="clip-path">
      <polygon
         class="cls-1"
         points="-248.1,1715.24 -248.67,1353.5 -310.37,1251.05 -341.89,1301.53 -373.23,1251.15 -443.88,1349.12 -443.31,1715.55 -346.26,1571.07 "
         id="polygon4" />
    </clipPath>
    <symbol
       id="New_Symbol"
       data-name="New Symbol"
       viewBox="0 0 937.11 2083.01">
      <path
         class="cls-2"
         d="m 127.54,1666.75 a 18,18 0 0 1 -18,-18 l -0.08,-83.18 a 18,18 0 0 1 18,-18 l 773.59,-0.74 a 18,18 0 0 1 18,18 l 0.08,83.18 a 18,18 0 0 1 -18,18 z"
         id="path7" />
      <path
         class="cls-2"
         d="m 901,1564.83 0.08,83.18 -773.57,0.74 -0.08,-83.18 773.57,-0.74 m 0,-36 v 0 l -773.56,0.74 a 36,36 0 0 0 -36,36 l 0.08,83.18 a 36,36 0 0 0 36,36 v 0 l 773.57,-0.74 a 36,36 0 0 0 36,-36 l -0.08,-83.19 a 36,36 0 0 0 -36,-36 z"
         id="path9" />
      <path
         class="cls-2"
         d="m 205.91,1556.86 a 19,19 0 0 1 -19,-19 L 186.47,330 A 19,19 0 0 1 192,316.59 l 96.48,-96.38 A 19,19 0 0 1 302,214.66 l 422.59,0.86 a 19,19 0 0 1 13.39,5.56 l 95.27,95.2 a 19,19 0 0 1 5.57,13.43 l 0.44,1207.92 a 19,19 0 0 1 -19,19 z"
         id="path11" />
      <path
         class="cls-2"
         d="m 302,233.66 422.55,0.86 95.27,95.2 0.44,1207.92 -614.3,0.22 L 205.47,330 302,233.66 m 0,-38 a 38,38 0 0 0 -26.86,11.11 l -96.47,96.38 a 38,38 0 0 0 -11.15,26.9 l 0.44,1207.83 a 38,38 0 0 0 38,38 v 0 l 614.3,-0.22 a 38,38 0 0 0 38,-38 L 857.82,329.75 a 38,38 0 0 0 -11.14,-26.87 l -95.27,-95.2 a 38,38 0 0 0 -26.78,-11.12 z"
         id="path13" />
      <polyline
         class="cls-3"
         points="125.58 1565.17 906.6 1566.53 907.24 1655.99"
         id="polyline15" />
      <circle
         class="cls-4"
         cx="515.56"
         cy="575.62"
         r="44.700001"
         id="circle17" />
      <path
         class="cls-5"
         d="m 528.71,502.87 -4.66,-2.12 c 4.64,-103.11 -39.38,-117.53 -39.38,-117.53 -52.83,-15.2 -109.86,44.33 -109.86,44.33 55.46,17.55 98.61,87.33 98.61,87.33 l -4.25,3.85 c -69.62,-76.2 -110.94,-55.26 -110.94,-55.26 -48.11,26.61 -46.34,109 -46.34,109 51.62,-26.8 131.48,-8 131.48,-8 l -2.68,2.62 c -103.11,-4.65 -117.53,39.37 -117.53,39.37 -15.2,52.84 44.33,109.87 44.33,109.87 17.55,-55.46 87.33,-98.62 87.33,-98.62 l 1.8,4.81 c -76.2,69.62 -55.26,110.94 -55.26,110.94 26.61,48.11 109,46.34 109,46.34 -26.81,-51.63 -8,-131.48 -8,-131.48 l 4.67,2.12 C 502.43,753.6 546.45,768 546.45,768 599.29,783.2 656.32,723.67 656.32,723.67 600.86,706.12 557.7,636.34 557.7,636.34 l 4.81,-1.8 c 69.62,76.2 110.94,55.26 110.94,55.26 48.11,-26.61 46.34,-109 46.34,-109 -51.62,26.81 -131.48,8 -131.48,8 l 2.13,-4.67 C 693.55,588.75 708,544.73 708,544.73 723.2,491.89 663.67,434.87 663.67,434.87 c -17.55,55.45 -87.33,98.61 -87.33,98.61 l -1.8,-4.81 c 76.2,-69.62 55.26,-110.94 55.26,-110.94 -26.61,-48.11 -109,-46.34 -109,-46.34 26.74,51.61 7.91,131.48 7.91,131.48 z M 576.56,559 A 63.21,63.21 0 1 1 499,514.63 63.21,63.21 0 0 1 576.56,559 Z"
         id="path19" />
      <circle
         class="cls-4"
         cx="515.59003"
         cy="1124.0601"
         r="44.700001"
         id="circle21" />
      <path
         class="cls-6"
         d="m 589.51,1124.8 1.31,-5 c 102.43,-12.75 109.24,-58.57 109.24,-58.57 6.11,-54.63 -62.16,-100.85 -62.16,-100.85 -8,57.62 -69.52,111.89 -69.52,111.89 l -4.5,-3.54 c 63.41,-81.44 35.83,-118.65 35.83,-118.65 -34.32,-43 -115.27,-27.36 -115.27,-27.36 35.1,46.39 30,128.27 30,128.27 l -3,-2.21 C 498.62,946.4 452.8,939.59 452.8,939.59 398.17,933.48 352,1001.75 352,1001.75 c 57.62,8 111.89,69.52 111.89,69.52 l -4.43,2.57 C 378,1010.43 340.75,1038 340.75,1038 c -42.95,34.31 -27.36,115.26 -27.36,115.26 46.39,-35.1 128.28,-30 128.28,-30 l -1.32,5 c -102.42,12.75 -109.23,58.56 -109.23,58.56 -6.11,54.64 62.16,100.86 62.16,100.86 8,-57.62 69.52,-111.89 69.52,-111.89 l 2.57,4.43 c -63.41,81.44 -35.83,118.66 -35.83,118.66 34.32,42.95 115.27,27.36 115.27,27.36 -35.1,-46.39 -30,-128.28 -30,-128.28 l 5,1.31 c 12.75,102.43 58.56,109.24 58.56,109.24 54.64,6.11 100.86,-62.16 100.86,-62.16 -57.62,-8 -111.89,-69.52 -111.89,-69.52 l 4.43,-2.58 c 81.44,63.42 118.65,35.83 118.65,35.83 43,-34.31 27.37,-115.26 27.37,-115.26 -46.39,35.12 -128.28,29.98 -128.28,29.98 z m -47.31,56.6 a 63.21,63.21 0 1 1 30.73,-84 63.22,63.22 0 0 1 -30.73,84 z"
         id="path23" />
      <path
         class="cls-7"
         d="m 36,2072 a 11,11 0 0 1 -11,-11 l -0.57,-366.43 a 11,11 0 0 1 2.07,-6.45 L 95,1593.06 92.92,248.67 22,248.78 a 11,11 0 0 1 -9.8,-16 L 122.27,17 A 11,11 0 0 1 132,11 h 0.12 a 11,11 0 0 1 9.69,5.8 l 115.64,215.42 a 11,11 0 0 1 -9.67,16.21 l -70,0.11 2.11,1344.91 60.11,99.84 a 11.05,11.05 0 0 1 1.58,5.66 l 0.57,361.74 a 11,11 0 0 1 -7.76,10.52 10.68,10.68 0 0 1 -3.24,0.5 11,11 0 0 1 -9.1,-4.82 l -89,-130.72 -88,131 A 11,11 0 0 1 36,2072 Z"
         id="path25" />
      <path
         class="cls-2"
         d="m 132.07,22 115.69,215.43 -81,0.12 2.14,1359 61.7,102.45 0.57,361.73 L 133,1916.53 36,2061 l -0.57,-366.43 70.64,-98 -2.13,-1359 -81.9,0.13 L 132.07,22 m 0,-22 h -0.23 A 22,22 0 0 0 112.47,12 L 2.4,227.78 a 22,22 0 0 0 19.6,32 v 0 l 59.9,-0.09 2.1,1329.83 -66.48,92.2 a 22,22 0 0 0 -4.15,12.9 L 14,2061.05 a 22,22 0 0 0 40.26,12.23 L 133.17,1955.8 213,2073.09 a 22,22 0 0 0 18.19,9.62 21.72,21.72 0 0 0 6.49,-1 22,22 0 0 0 15.51,-21 l -0.57,-361.74 a 22,22 0 0 0 -3.16,-11.31 l -58.55,-97.24 -2.11,-1330.9 59,-0.09 A 22,22 0 0 0 267.14,227 L 151.45,11.59 A 22,22 0 0 0 132.07,0 Z"
         id="path27" />
      <path
         class="cls-4"
         d="m 205.47,330 0.44,1207.83 614.3,-0.22 L 819.77,329.69 724.5,234.49 302,233.66 Z m 542.08,792 c 0.05,126.91 -102.8,229.83 -229.7,229.87 C 390.95,1351.91 288,1249.08 288,1122.17 288,995.26 390.77,892.35 517.68,892.3 644.59,892.25 747.5,995.1 747.55,1122 Z m 3.88,-550.47 c 0.05,129.17 -104.62,233.91 -233.78,234 -129.16,0.09 -233.91,-104.62 -234,-233.78 -0.09,-129.16 104.62,-233.92 233.78,-234 129.16,-0.08 233.96,104.62 234,233.78 z"
         id="path29" />
      <polygon
         class="cls-2"
         points="166.79,278.48 166.76,256.7 247.76,256.57 132.07,41.15 22,256.93 103.9,256.8 103.93,278.48 "
         id="polygon31" />
      <polygon
         class="cls-6"
         points="166.79,259.33 166.76,237.55 247.76,237.43 132.07,22 22,237.78 103.9,237.65 103.93,259.33 "
         id="polygon33" />
      <polygon
         class="cls-2"
         points="231.17,2030.7 230.6,1668.96 168.9,1566.51 137.38,1616.99 106.03,1566.61 35.38,1664.58 35.96,2031.01 133.01,1886.53 "
         id="polygon35" />
      <polygon
         class="cls-5"
         points="231.17,2060.7 230.6,1698.96 168.9,1596.51 137.38,1646.99 106.03,1596.61 35.38,1694.58 35.96,2061.01 133.01,1916.53 "
         id="polygon37" />
    </symbol>
  </defs>
  <title
     id="title42">final logo 2</title>
  <use
     width="937.10999"
     height="2083.01"
     transform="matrix(0.53171185,0.2053838,-0.2053838,0.53171185,416.69631,-26.281363)"
     xlink:href="#New_Symbol"
     id="use68"
     x="0"
     y="0" />
  <path
     class="cls-7"
     d="m 685.75631,284.49864 c 3.21,0 3.22,-5 0,-5 -3.22,0 -3.23,5 0,5 z"
     id="path110" />
  <path
     class="cls-7"
     d="m 673.23631,281.06864 c 3.22,0 3.22,-5 0,-5 -3.22,0 -3.22,5 0,5 z"
     id="path112" />
</svg>
