<?xml version="1.0" encoding="UTF-8" standalone="no"?>
<svg
   xmlns:dc="http://purl.org/dc/elements/1.1/"
   xmlns:cc="http://creativecommons.org/ns#"
   xmlns:rdf="http://www.w3.org/1999/02/22-rdf-syntax-ns#"
   xmlns:svg="http://www.w3.org/2000/svg"
   xmlns="http://www.w3.org/2000/svg"
   xmlns:xlink="http://www.w3.org/1999/xlink"
   xmlns:sodipodi="http://sodipodi.sourceforge.net/DTD/sodipodi-0.dtd"
   xmlns:inkscape="http://www.inkscape.org/namespaces/inkscape"
   inkscape:version="1.0 (4035a4fb49, 2020-05-01)"
   height="1129.4341"
   width="2815.1294"
   sodipodi:docname="final_logo_title2.svg"
   version="1.1"
   viewBox="0 0 2815.1294 1129.4341"
   data-name="Layer 1"
   id="Layer_1">
  <metadata
     id="metadata117">
    <rdf:RDF>
      <cc:Work
         rdf:about="">
        <dc:format>image/svg+xml</dc:format>
        <dc:type
           rdf:resource="http://purl.org/dc/dcmitype/StillImage" />
        <dc:title>final logo 2</dc:title>
      </cc:Work>
    </rdf:RDF>
  </metadata>
  <sodipodi:namedview
     inkscape:current-layer="Layer_1"
     inkscape:window-maximized="1"
     inkscape:window-y="88"
     inkscape:window-x="-8"
     inkscape:cy="424.4569"
     inkscape:cx="1410.0063"
     inkscape:zoom="0.28108466"
     fit-margin-bottom="0"
     fit-margin-right="0"
     fit-margin-left="0"
     fit-margin-top="0"
     borderlayer="false"
     inkscape:pagecheckerboard="true"
     showgrid="false"
     id="namedview115"
     inkscape:window-height="1017"
     inkscape:window-width="1920"
     inkscape:pageshadow="2"
     inkscape:pageopacity="0"
     guidetolerance="10"
     gridtolerance="10"
     objecttolerance="10"
     borderopacity="1"
     bordercolor="#666666"
     pagecolor="#ffffff" />
  <defs
     id="defs40">
    <style
       id="style2">.cls-1,.cls-3{fill:none;}.cls-10,.cls-2{fill:#fff;}.cls-11,.cls-12,.cls-3,.cls-4{stroke:#231f20;}.cls-3,.cls-4,.cls-8{stroke-miterlimit:10;}.cls-3{stroke-width:12px;}.cls-11,.cls-12,.cls-4,.cls-7,.cls-8{fill:#231f20;}.cls-4{stroke-width:8px;}.cls-5{fill:#931b23;}.cls-6{fill:#605e5f;}.cls-10,.cls-8{stroke:#fff;}.cls-8{stroke-width:17px;}.cls-9{clip-path:url(#clip-path);}.cls-10,.cls-11,.cls-12{stroke-linejoin:round;}.cls-10{stroke-width:76px;}.cls-11{stroke-width:7px;}</style>
    <clipPath
       id="clip-path">
      <polygon
         id="polygon4"
         points="-346.26,1571.07 -248.1,1715.24 -248.67,1353.5 -310.37,1251.05 -341.89,1301.53 -373.23,1251.15 -443.88,1349.12 -443.31,1715.55 "
         class="cls-1" />
    </clipPath>
    <symbol
       viewBox="0 0 937.11 2083.01"
       data-name="New Symbol"
       id="New_Symbol">
      <path
         id="path7"
         d="m 127.54,1666.75 a 18,18 0 0 1 -18,-18 l -0.08,-83.18 a 18,18 0 0 1 18,-18 l 773.59,-0.74 a 18,18 0 0 1 18,18 l 0.08,83.18 a 18,18 0 0 1 -18,18 z"
         class="cls-2" />
      <path
         id="path9"
         d="m 901,1564.83 0.08,83.18 -773.57,0.74 -0.08,-83.18 773.57,-0.74 m 0,-36 v 0 l -773.56,0.74 a 36,36 0 0 0 -36,36 l 0.08,83.18 a 36,36 0 0 0 36,36 v 0 l 773.57,-0.74 a 36,36 0 0 0 36,-36 l -0.08,-83.19 a 36,36 0 0 0 -36,-36 z"
         class="cls-2" />
      <path
         id="path11"
         d="m 205.91,1556.86 a 19,19 0 0 1 -19,-19 L 186.47,330 A 19,19 0 0 1 192,316.59 l 96.48,-96.38 A 19,19 0 0 1 302,214.66 l 422.59,0.86 a 19,19 0 0 1 13.39,5.56 l 95.27,95.2 a 19,19 0 0 1 5.57,13.43 l 0.44,1207.92 a 19,19 0 0 1 -19,19 z"
         class="cls-2" />
      <path
         id="path13"
         d="m 302,233.66 422.55,0.86 95.27,95.2 0.44,1207.92 -614.3,0.22 L 205.47,330 302,233.66 m 0,-38 a 38,38 0 0 0 -26.86,11.11 l -96.47,96.38 a 38,38 0 0 0 -11.15,26.9 l 0.44,1207.83 a 38,38 0 0 0 38,38 v 0 l 614.3,-0.22 a 38,38 0 0 0 38,-38 L 857.82,329.75 a 38,38 0 0 0 -11.14,-26.87 l -95.27,-95.2 a 38,38 0 0 0 -26.78,-11.12 z"
         class="cls-2" />
      <polyline
         id="polyline15"
         points="125.58 1565.17 906.6 1566.53 907.24 1655.99"
         class="cls-3" />
      <circle
         id="circle17"
         r="44.700001"
         cy="575.62"
         cx="515.56"
         class="cls-4" />
      <path
         id="path19"
         d="m 528.71,502.87 -4.66,-2.12 c 4.64,-103.11 -39.38,-117.53 -39.38,-117.53 -52.83,-15.2 -109.86,44.33 -109.86,44.33 55.46,17.55 98.61,87.33 98.61,87.33 l -4.25,3.85 c -69.62,-76.2 -110.94,-55.26 -110.94,-55.26 -48.11,26.61 -46.34,109 -46.34,109 51.62,-26.8 131.48,-8 131.48,-8 l -2.68,2.62 c -103.11,-4.65 -117.53,39.37 -117.53,39.37 -15.2,52.84 44.33,109.87 44.33,109.87 17.55,-55.46 87.33,-98.62 87.33,-98.62 l 1.8,4.81 c -76.2,69.62 -55.26,110.94 -55.26,110.94 26.61,48.11 109,46.34 109,46.34 -26.81,-51.63 -8,-131.48 -8,-131.48 l 4.67,2.12 C 502.43,753.6 546.45,768 546.45,768 599.29,783.2 656.32,723.67 656.32,723.67 600.86,706.12 557.7,636.34 557.7,636.34 l 4.81,-1.8 c 69.62,76.2 110.94,55.26 110.94,55.26 48.11,-26.61 46.34,-109 46.34,-109 -51.62,26.81 -131.48,8 -131.48,8 l 2.13,-4.67 C 693.55,588.75 708,544.73 708,544.73 723.2,491.89 663.67,434.87 663.67,434.87 c -17.55,55.45 -87.33,98.61 -87.33,98.61 l -1.8,-4.81 c 76.2,-69.62 55.26,-110.94 55.26,-110.94 -26.61,-48.11 -109,-46.34 -109,-46.34 26.74,51.61 7.91,131.48 7.91,131.48 z M 576.56,559 A 63.21,63.21 0 1 1 499,514.63 63.21,63.21 0 0 1 576.56,559 Z"
         class="cls-5" />
      <circle
         id="circle21"
         r="44.700001"
         cy="1124.0601"
         cx="515.59003"
         class="cls-4" />
      <path
         id="path23"
         d="m 589.51,1124.8 1.31,-5 c 102.43,-12.75 109.24,-58.57 109.24,-58.57 6.11,-54.63 -62.16,-100.85 -62.16,-100.85 -8,57.62 -69.52,111.89 -69.52,111.89 l -4.5,-3.54 c 63.41,-81.44 35.83,-118.65 35.83,-118.65 -34.32,-43 -115.27,-27.36 -115.27,-27.36 35.1,46.39 30,128.27 30,128.27 l -3,-2.21 C 498.62,946.4 452.8,939.59 452.8,939.59 398.17,933.48 352,1001.75 352,1001.75 c 57.62,8 111.89,69.52 111.89,69.52 l -4.43,2.57 C 378,1010.43 340.75,1038 340.75,1038 c -42.95,34.31 -27.36,115.26 -27.36,115.26 46.39,-35.1 128.28,-30 128.28,-30 l -1.32,5 c -102.42,12.75 -109.23,58.56 -109.23,58.56 -6.11,54.64 62.16,100.86 62.16,100.86 8,-57.62 69.52,-111.89 69.52,-111.89 l 2.57,4.43 c -63.41,81.44 -35.83,118.66 -35.83,118.66 34.32,42.95 115.27,27.36 115.27,27.36 -35.1,-46.39 -30,-128.28 -30,-128.28 l 5,1.31 c 12.75,102.43 58.56,109.24 58.56,109.24 54.64,6.11 100.86,-62.16 100.86,-62.16 -57.62,-8 -111.89,-69.52 -111.89,-69.52 l 4.43,-2.58 c 81.44,63.42 118.65,35.83 118.65,35.83 43,-34.31 27.37,-115.26 27.37,-115.26 -46.39,35.12 -128.28,29.98 -128.28,29.98 z m -47.31,56.6 a 63.21,63.21 0 1 1 30.73,-84 63.22,63.22 0 0 1 -30.73,84 z"
         class="cls-6" />
      <path
         id="path25"
         d="m 36,2072 a 11,11 0 0 1 -11,-11 l -0.57,-366.43 a 11,11 0 0 1 2.07,-6.45 L 95,1593.06 92.92,248.67 22,248.78 a 11,11 0 0 1 -9.8,-16 L 122.27,17 A 11,11 0 0 1 132,11 h 0.12 a 11,11 0 0 1 9.69,5.8 l 115.64,215.42 a 11,11 0 0 1 -9.67,16.21 l -70,0.11 2.11,1344.91 60.11,99.84 a 11.05,11.05 0 0 1 1.58,5.66 l 0.57,361.74 a 11,11 0 0 1 -7.76,10.52 10.68,10.68 0 0 1 -3.24,0.5 11,11 0 0 1 -9.1,-4.82 l -89,-130.72 -88,131 A 11,11 0 0 1 36,2072 Z"
         class="cls-7" />
      <path
         id="path27"
         d="m 132.07,22 115.69,215.43 -81,0.12 2.14,1359 61.7,102.45 0.57,361.73 L 133,1916.53 36,2061 l -0.57,-366.43 70.64,-98 -2.13,-1359 -81.9,0.13 L 132.07,22 m 0,-22 h -0.23 A 22,22 0 0 0 112.47,12 L 2.4,227.78 a 22,22 0 0 0 19.6,32 v 0 l 59.9,-0.09 2.1,1329.83 -66.48,92.2 a 22,22 0 0 0 -4.15,12.9 L 14,2061.05 a 22,22 0 0 0 40.26,12.23 L 133.17,1955.8 213,2073.09 a 22,22 0 0 0 18.19,9.62 21.72,21.72 0 0 0 6.49,-1 22,22 0 0 0 15.51,-21 l -0.57,-361.74 a 22,22 0 0 0 -3.16,-11.31 l -58.55,-97.24 -2.11,-1330.9 59,-0.09 A 22,22 0 0 0 267.14,227 L 151.45,11.59 A 22,22 0 0 0 132.07,0 Z"
         class="cls-2" />
      <path
         id="path29"
         d="m 205.47,330 0.44,1207.83 614.3,-0.22 L 819.77,329.69 724.5,234.49 302,233.66 Z m 542.08,792 c 0.05,126.91 -102.8,229.83 -229.7,229.87 C 390.95,1351.91 288,1249.08 288,1122.17 288,995.26 390.77,892.35 517.68,892.3 644.59,892.25 747.5,995.1 747.55,1122 Z m 3.88,-550.47 c 0.05,129.17 -104.62,233.91 -233.78,234 -129.16,0.09 -233.91,-104.62 -234,-233.78 -0.09,-129.16 104.62,-233.92 233.78,-234 129.16,-0.08 233.96,104.62 234,233.78 z"
         class="cls-4" />
      <polygon
         id="polygon31"
         points="103.93,278.48 166.79,278.48 166.76,256.7 247.76,256.57 132.07,41.15 22,256.93 103.9,256.8 "
         class="cls-2" />
      <polygon
         id="polygon33"
         points="103.93,259.33 166.79,259.33 166.76,237.55 247.76,237.43 132.07,22 22,237.78 103.9,237.65 "
         class="cls-6" />
      <polygon
         id="polygon35"
         points="133.01,1886.53 231.17,2030.7 230.6,1668.96 168.9,1566.51 137.38,1616.99 106.03,1566.61 35.38,1664.58 35.96,2031.01 "
         class="cls-2" />
      <polygon
         id="polygon37"
         points="133.01,1916.53 231.17,2060.7 230.6,1698.96 168.9,1596.51 137.38,1646.99 106.03,1596.61 35.38,1694.58 35.96,2061.01 "
         class="cls-5" />
    </symbol>
  </defs>
  <title
     id="title42">final logo 2</title>
  <use
     y="0"
     x="0"
     id="use68"
     xlink:href="#New_Symbol"
     transform="matrix(0.53171185,0.2053838,-0.2053838,0.53171185,416.69631,-26.281363)"
     height="2083.01"
     width="937.10999" />
  <path
     id="path70"
     d="m 974.62631,725.19864 -71.57,-0.45 -18.58,59.42 -34.72,-0.22 77.06,-235.07 32.42,0.21 66.08999,236 -34.71999,-0.22 z m -63.43,-26.45 56.6,0.36 -25.55,-95.93 h -1 z"
     class="cls-10" />
  <path
     id="path72"
     d="m 1130.4463,638.00864 -14.44,-0.94 q -10.53,-0.07 -17.66,6.12 -7.13,6.19 -11.16,17.48 l -2.73,124.71 -33.57,-0.21 3.83,-175 30.77,0.19 1.74,25.9 q 6.22,-13.71 15.61,-21.34 a 32.64,32.64 0 0 1 21.39,-7.55 28.83,28.83 0 0 1 5.83,0.6 32.42,32.42 0 0 1 4.83,1.41 z"
     class="cls-10" />
  <path
     id="path74"
     d="m 1218.2063,567.69864 -1,43.51 27.81,0.18 -0.51,23.45 -27.81,-0.17 -2.28,104.17 q -0.3,13.59 3.77,19.35 a 12.88,12.88 0 0 0 11,5.82 27,27 0 0 0 5.28,-0.46 q 2.48,-0.46 5.79,-1.41 l 3,22.66 a 54.51,54.51 0 0 1 -10.69,3.58 53.43,53.43 0 0 1 -12.13,1.3 q -19.25,-0.13 -29.68,-12.41 -10.43,-12.28 -9.85,-38.64 l 2.28,-104.18 -23.53,-0.14 0.52,-23.46 23.52,0.15 1,-43.51 z"
     class="cls-10" />
  <path
     id="path76"
     d="m 1348.9063,790.47864 q -33.24,-0.21 -51.55,-24.27 -18.31,-24.06 -17.48,-62.39 l 0.17,-7.6 q 0.84,-38.51 20.14,-63.05 19.3,-24.54 49.57,-24.36 30.43,0.18 45.86,21.48 15.43,21.3 14.63,57 l -0.41,18.44 -96.58,-0.61 q -0.6,26.85 8.84,43.58 9.44,16.73 29.66,16.84 14,0.09 24.45,-4.13 a 63.75,63.75 0 0 0 19.36,-12.41 l 10.41,20.44 q -9.08,9 -23.78,15.06 -14.7,6.06 -33.29,5.98 z m 0.3,-156.44 q -14.49,-0.09 -23.33,13 -8.84,13.09 -11.45,34.79 l 63,0.4 0.08,-3.72 q 0.43,-19.74 -6.46,-32.08 -6.89,-12.34 -21.84,-12.36 z"
     class="cls-10" />
  <path
     id="path78"
     d="m 1485.7463,612.89864 1.29,23.79 a 56,56 0 0 1 19.27,-19.86 q 11.6,-7 26.73,-6.87 14.82,0.09 25.5,8.17 10.68,8.08 15.75,24.44 7.41,-15.15 19.36,-23.66 11.95,-8.51 27.92,-8.4 23.19,0.15 36,18.75 12.81,18.6 12,56.46 l -2.21,103.35 -33.57,-0.21 2.27,-103.52 q 0.6,-27.35 -6.08,-38.3 -6.68,-10.95 -20.33,-11 a 25.75,25.75 0 0 0 -19.51,8.29 q -8,8.37 -11.92,22.09 c 0.06,1.94 0.13,4 0.19,6.07 0.06,2.07 0.07,4.23 0,6.39 l -2.4,109.67 -33.41,-0.21 2.27,-103.53 q 0.57,-26.35 -6.25,-37.81 -6.82,-11.46 -20.32,-11.53 -10.86,-0.08 -18.55,5.7 a 39.32,39.32 0 0 0 -12.2,15.94 l -2.87,130.87 -33.56,-0.21 3.83,-175 z"
     class="cls-10" />
  <path
     id="path80"
     d="m 1759.5463,568.66864 -33.57,-0.21 0.69,-31.38 33.57,0.21 z m -4.84,221 -33.57,-0.21 3.84,-175 33.56,0.21 z"
     class="cls-10" />
  <path
     id="path82"
     d="m 1894.0063,746.33864 a 22.77,22.77 0 0 0 -6.54,-17.11 q -6.77,-6.92 -26.15,-15.61 -27.25,-10.36 -40.65,-22.42 -13.4,-12.06 -13,-30.82 0.45,-20.22 17.29,-34.35 16.84,-14.13 43.34,-14 27.48,0.18 43.92,15.89 16.44,15.71 15.3,37.87 l -0.35,1 -32.25,-0.2 a 32,32 0 0 0 -7,-21.48 q -7.29,-9 -20.12,-9.11 -12.83,-0.11 -20.15,6.91 a 22.69,22.69 0 0 0 -7.51,16.38 q -0.23,10 5.82,15.81 6.05,5.81 26.09,15 27.75,9.88 41.55,22.75 13.8,12.87 13.36,32.12 -0.48,21.84 -17.8,35.4 -17.32,13.56 -45,13.39 -29.94,-0.2 -46.78,-16.72 -16.84,-16.52 -15.53,-38.52 l 0.35,-1 31.1,0.2 q 0.29,17 9.25,24.57 8.96,7.57 22.63,7.66 13.32,0.09 21,-6.58 a 22.27,22.27 0 0 0 7.83,-17.03 z"
     class="cls-10" />
  <path
     id="path84"
     d="m 2077.3863,422.82864 98.89,0.62 q 40.11,0.25 61.55,6.58 21.44,6.33 32,18.09 a 60,60 0 0 1 14.08,28.41 q 3.48,16.65 2.72,51.49 l -0.71,32.33 q -0.78,35.54 -8.6,51.77 -7.82,16.23 -27.95,24.82 -20.13,8.6 -52.31,8.38 l -26.36,-0.16 -3.27,149.49 -98.19,-0.62 z m 96.8,64.13 -2.07,94.46 q 4.18,0.26 7.22,0.27 13.53,0.09 18.92,-6.41 5.39,-6.5 5.84,-27.14 l 0.67,-30.49 q 0.42,-19 -5.52,-24.8 -5.94,-5.8 -25.06,-5.89 z"
     class="cls-10" />
  <path
     id="path86"
     d="m 2545.2463,587.42864 -98.18,-0.62 1.41,-64.51 q 0.62,-28.14 -2.38,-35.14 -3,-7 -13.73,-7.07 -12.12,-0.07 -15.57,8.39 -3.45,8.46 -4.07,36.66 l -3.78,172.42 q -0.58,27.06 2.5,35.33 3.08,8.27 14.51,8.35 11,0.06 14.52,-8.19 3.52,-8.25 4.23,-38.82 l 1,-46.66 98.18,0.62 -0.31,14.47 q -1.26,57.63 -10.07,81.68 -8.81,24.05 -37.54,42 -28.74,18 -70.25,17.7 -43.15,-0.27 -70.8,-15.8 -27.65,-15.53 -36.15,-42.77 -8.51,-27.23 -7.31,-81.79 l 2.38,-108.45 q 0.87,-40.12 4.11,-60.17 3.24,-20.05 17.52,-38.52 14.28,-18.49 39.13,-29 24.85,-10.51 56.79,-10.3 43.38,0.27 71.24,16.93 27.86,16.66 36.18,41.34 8.33,24.66 7.19,76.64 z"
     class="cls-10" />
  <path
     id="path88"
     d="m 2772.4163,591.37864 -83.5,-0.53 0.36,-16.5 q 0.46,-21.09 -1.86,-26.73 -2.32,-5.64 -12.12,-5.69 -7.93,-0.06 -12,5.08 -4.07,5.14 -4.3,15.45 -0.32,14 1.53,20.53 1.85,6.53 11.58,14.41 9.73,7.86 40.2,23 40.62,20 53.06,37.48 12.44,17.48 11.72,50.75 -0.81,37.15 -11,56 -10.19,18.85 -33.41,28.91 -23.19,10.07 -55.61,9.86 -35.93,-0.22 -61.21,-11.39 -25.28,-11.17 -34.45,-30 -9.16,-18.85 -8.32,-56.92 l 0.32,-14.67 83.5,0.52 -0.43,19.26 q -0.53,24.54 2.45,31.89 2.98,7.35 12.32,7.42 10,0.06 14.1,-4.85 4.1,-4.91 4.42,-20.72 0.48,-21.78 -4.53,-27.32 -5.25,-5.54 -54.1,-32.9 -41,-23.17 -49.69,-41.93 -8.69,-18.76 -8.13,-44.42 0.79,-36.45 11,-53.71 10.21,-17.26 33.82,-26.5 23.64,-9.26 54.67,-9.06 30.78,0.19 52.19,8 21.41,7.81 32.67,20.5 11.27,12.69 13.48,23.48 2.21,10.79 1.71,33.71 z"
     class="cls-10" />
  <path
     id="path90"
     d="m 967.51631,718.77864 -71.8,-1 -18.19,60.4 -34.83,-0.49 75.5,-238.91 32.52,0.46 68.10999,240.92 -34.82999,-0.49 z m -63.84,-27.43 56.78,0.8 -26.36,-97.94 h -1 z"
     class="cls-11" />
  <path
     id="path92"
     d="m 1123.1563,631.13864 -14.52,-1 q -10.56,-0.15 -17.67,6.1 -7.11,6.25 -11.06,17.73 l -1.78,127 -33.67,-0.47 2.5,-178.29 30.86,0.43 2,26.4 q 6.13,-13.92 15.49,-21.62 a 32,32 0 0 1 21.4,-7.53 28.3,28.3 0 0 1 5.85,0.66 32.13,32.13 0 0 1 4.85,1.47 z"
     class="cls-11" />
  <path
     id="path94"
     d="m 1210.6363,560.17864 -0.62,44.33 27.9,0.39 -0.34,23.89 -27.89,-0.39 -1.49,106.12 q -0.2,13.85 3.93,19.75 a 13.07,13.07 0 0 0 11.06,6 26.45,26.45 0 0 0 5.29,-0.42 q 2.49,-0.45 5.8,-1.4 l 3.14,23.12 a 53.42,53.42 0 0 1 -22.85,4.79 q -19.3,-0.27 -29.87,-12.86 -10.57,-12.59 -10.18,-39.43 l 1.49,-106.11 -23.6,-0.34 0.33,-23.89 23.61,0.33 0.62,-44.32 z"
     class="cls-11" />
  <path
     id="path96"
     d="m 1479.3663,608.27864 1.47,24.25 a 55.47,55.47 0 0 1 19.19,-20.08 q 11.57,-7 26.76,-6.8 14.85,0.21 25.64,8.52 10.79,8.31 16,25 7.3,-15.39 19.24,-24 11.94,-8.61 27.93,-8.34 23.28,0.33 36.3,19.38 13.02,19.05 12.48,57.61 l -1.47,105.29 -33.68,-0.47 1.48,-105.46 q 0.39,-27.84 -6.38,-39.06 -6.77,-11.22 -20.48,-11.42 a 25.25,25.25 0 0 0 -19.51,8.3 q -8,8.46 -11.79,22.41 0.12,3 0.24,6.19 0.12,3.19 0.07,6.51 l -1.56,111.72 -33.51,-0.47 1.48,-105.46 q 0.38,-26.85 -6.56,-38.58 -6.94,-11.73 -20.47,-11.9 -10.9,-0.15 -18.57,5.67 a 39.12,39.12 0 0 0 -12.12,16.15 l -1.87,133.3 -33.67,-0.47 2.5,-178.29 z"
     class="cls-11" />
  <path
     id="path98"
     d="m 1753.6863,565.31864 -33.68,-0.47 0.45,-32 33.67,0.48 z m -3.16,225.09 -33.67,-0.47 2.5,-178.29 33.67,0.47 z"
     class="cls-11" />
  <path
     id="path100"
     d="m 1890.0063,747.36864 a 23.71,23.71 0 0 0 -6.69,-17.48 q -6.84,-7.1 -26.35,-16.11 -27.44,-10.76 -41,-23.15 -13.56,-12.39 -13.26,-31.5 0.3,-20.6 17.08,-34.86 16.78,-14.26 43.37,-13.9 27.57,0.39 44.18,16.52 16.61,16.13 15.64,38.71 l -0.34,1 -32.36,-0.45 a 33.3,33.3 0 0 0 -7.2,-21.94 q -7.38,-9.25 -20.26,-9.43 -12.88,-0.18 -20.15,6.88 a 22.92,22.92 0 0 0 -7.42,16.63 q -0.15,10.21 6,16.15 6.15,5.94 26.29,15.45 27.91,10.28 41.85,23.5 13.94,13.22 13.65,32.82 -0.3,22.25 -17.59,35.93 -17.29,13.68 -45,13.29 -30,-0.42 -47.05,-17.38 -17.05,-16.96 -15.88,-39.37 l 0.34,-1 31.2,0.43 q 0.42,17.32 9.47,25.11 9.05,7.79 22.76,8 13.37,0.18 21,-6.55 a 22.46,22.46 0 0 0 7.72,-17.3 z"
     class="cls-11" />
  <path
     id="path102"
     d="m 2069.7463,419.73864 99.2,1.39 q 40.23,0.56 61.79,7.17 21.56,6.61 32.27,18.67 a 62.53,62.53 0 0 1 14.33,29 q 3.63,17 3.13,52.49 l -0.46,32.93 q -0.51,36.21 -8.23,52.68 -7.72,16.47 -27.85,25.08 -20.13,8.59 -52.41,8.14 l -26.44,-0.37 -2.14,152.28 -98.5,-1.38 z m 97.59,66.07 -1.33,96.26 c 2.81,0.19 5.22,0.3 7.25,0.33 q 13.56,0.2 18.92,-6.39 5.36,-6.59 5.66,-27.6 l 0.43,-31.06 q 0.27,-19.39 -5.73,-25.31 -6,-5.92 -25.2,-6.23 z"
     class="cls-12" />
  <path
     id="path104"
     d="m 2540.3363,591.06864 -98.5,-1.39 0.92,-65.72 q 0.4,-28.66 -2.66,-35.82 -3.06,-7.16 -13.82,-7.3 -12.17,-0.17 -15.56,8.43 -3.39,8.6 -3.8,37.32 l -2.46,175.63 q -0.39,27.57 2.77,36 3.16,8.43 14.62,8.61 11,0.16 14.51,-8.22 3.51,-8.38 3.94,-39.52 l 0.67,-47.53 98.5,1.38 -0.21,14.73 q -0.83,58.71 -9.47,83.15 -8.64,24.44 -37.34,42.53 -28.68,18.08 -70.33,17.5 -43.28,-0.62 -71.14,-16.66 -27.86,-16.04 -36.59,-43.84 -8.74,-27.81 -8,-83.39 l 1.55,-110.48 q 0.57,-40.86 3.67,-61.27 3.1,-20.41 17.28,-39.12 14.17,-18.72 39,-29.23 24.83,-10.51 56.89,-10.07 43.52,0.61 71.59,17.8 28.07,17.19 36.62,42.39 8.53,25.2 7.79,78.14 z"
     class="cls-12" />
  <path
     id="path106"
     d="m 2768.2363,596.78864 -83.76,-1.17 0.24,-16.82 q 0.3,-21.48 -2.08,-27.24 -2.38,-5.76 -12.2,-5.9 -7.95,-0.1 -12,5.09 -4.05,5.19 -4.19,15.71 -0.21,14.25 1.69,20.93 1.9,6.68 11.73,14.76 9.82,8.09 40.5,23.7 40.89,20.67 53.52,38.59 12.63,17.92 12.14,51.8 -0.53,37.85 -10.63,57 -10.1,19.15 -33.29,29.2 -23.19,10.07 -55.71,9.61 -36,-0.5 -61.49,-12.07 -25.49,-11.57 -34.8,-30.91 -9.33,-19.27 -8.78,-58.06 l 0.21,-14.94 83.76,1.17 -0.27,19.62 q -0.36,25 2.7,32.51 3.06,7.51 12.41,7.65 10.07,0.13 14.11,-4.83 4.04,-4.96 4.28,-21.08 0.3,-22.18 -4.76,-27.86 -5.31,-5.68 -54.52,-33.94 -41.33,-23.94 -50.17,-43.1 -8.84,-19.16 -8.5,-45.32 0.52,-37.14 10.6,-54.63 10.08,-17.49 33.72,-26.75 23.66,-9.24 54.77,-8.81 30.87,0.43 52.41,8.56 21.54,8.13 32.93,21.14 11.41,13 13.71,24 2.3,11 2,34.37 z"
     class="cls-12" />
  <path
     id="path108"
     d="m 1343.4663,788.16864 q -33.35,-0.48 -51.91,-25.12 -18.56,-24.64 -18,-63.71 l 0.11,-7.75 q 0.55,-39.21 19.72,-64.08 19.17,-24.87 49.54,-24.44 30.54,0.43 46.17,22.24 15.63,21.81 15.11,58.23 l -0.26,18.78 -96.89,-1.36 q -0.39,27.36 9.2,44.47 9.59,17.11 29.88,17.39 14,0.2 24.49,-4 a 62.35,62.35 0 0 0 19.33,-12.5 l 10.6,20.91 q -9,9.1 -23.73,15.16 -14.73,6.06 -33.36,5.78 z m -0.91,-159.39 q -14.52,-0.21 -23.29,13.1 -8.77,13.31 -11.26,35.36 l 63.22,0.89 v -3.79 q 0.29,-20.1 -6.72,-32.73 -7.01,-12.63 -21.95,-12.83 z"
     class="cls-11" />
  <path
     id="path110"
     d="m 685.75631,284.49864 c 3.21,0 3.22,-5 0,-5 -3.22,0 -3.23,5 0,5 z"
     class="cls-7" />
  <path
     id="path112"
     d="m 673.23631,281.06864 c 3.22,0 3.22,-5 0,-5 -3.22,0 -3.22,5 0,5 z"
     class="cls-7" />
</svg>
