<svg id="Layer_1" data-name="Layer 1" xmlns="http://www.w3.org/2000/svg" xmlns:xlink="http://www.w3.org/1999/xlink" viewBox="0 0 3024 3024"><defs><style>.cls-1,.cls-3{fill:none;}.cls-10,.cls-2{fill:#fff;}.cls-11,.cls-12,.cls-3,.cls-4{stroke:#231f20;}.cls-3,.cls-4,.cls-8{stroke-miterlimit:10;}.cls-3{stroke-width:12px;}.cls-11,.cls-12,.cls-4,.cls-7,.cls-8{fill:#231f20;}.cls-4{stroke-width:8px;}.cls-5{fill:#931b23;}.cls-6{fill:#605e5f;}.cls-10,.cls-8{stroke:#fff;}.cls-8{stroke-width:17px;}.cls-9{clip-path:url(#clip-path);}.cls-10,.cls-11,.cls-12{stroke-linejoin:round;}.cls-10{stroke-width:76px;}.cls-11{stroke-width:7px;}</style><clipPath id="clip-path"><polygon class="cls-1" points="-373.23 1251.15 -443.88 1349.12 -443.31 1715.55 -346.26 1571.07 -248.1 1715.24 -248.67 1353.5 -310.37 1251.05 -341.89 1301.53 -373.23 1251.15"/></clipPath><symbol id="New_Symbol" data-name="New Symbol" viewBox="0 0 937.11 2083.01"><path class="cls-2" d="M127.54,1666.75a18,18,0,0,1-18-18l-.08-83.18a18,18,0,0,1,18-18l773.59-.74a18,18,0,0,1,18,18l.08,83.18a18,18,0,0,1-18,18Z"/><path class="cls-2" d="M901,1564.83l.08,83.18-773.57.74-.08-83.18,773.57-.74m0-36h0l-773.56.74a36,36,0,0,0-36,36l.08,83.18a36,36,0,0,0,36,36h0l773.57-.74a36,36,0,0,0,36-36l-.08-83.19a36,36,0,0,0-36-36Z"/><path class="cls-2" d="M205.91,1556.86a19,19,0,0,1-19-19L186.47,330A19,19,0,0,1,192,316.59l96.48-96.38A19,19,0,0,1,302,214.66l422.59.86a19,19,0,0,1,13.39,5.56l95.27,95.2a19,19,0,0,1,5.57,13.43l.44,1207.92a19,19,0,0,1-19,19Z"/><path class="cls-2" d="M302,233.66l422.55.86,95.27,95.2.44,1207.92-614.3.22L205.47,330,302,233.66m0-38a38,38,0,0,0-26.86,11.11l-96.47,96.38a38,38,0,0,0-11.15,26.9l.44,1207.83a38,38,0,0,0,38,38h0l614.3-.22a38,38,0,0,0,38-38l-.44-1207.91a38,38,0,0,0-11.14-26.87l-95.27-95.2a38,38,0,0,0-26.78-11.12L302,195.66Z"/><polyline class="cls-3" points="125.58 1565.17 906.6 1566.53 907.24 1655.99"/><circle class="cls-4" cx="515.56" cy="575.62" r="44.7"/><path class="cls-5" d="M528.71,502.87l-4.66-2.12c4.64-103.11-39.38-117.53-39.38-117.53-52.83-15.2-109.86,44.33-109.86,44.33,55.46,17.55,98.61,87.33,98.61,87.33l-4.25,3.85c-69.62-76.2-110.94-55.26-110.94-55.26-48.11,26.61-46.34,109-46.34,109,51.62-26.8,131.48-8,131.48-8l-2.68,2.62c-103.11-4.65-117.53,39.37-117.53,39.37-15.2,52.84,44.33,109.87,44.33,109.87,17.55-55.46,87.33-98.62,87.33-98.62l1.8,4.81c-76.2,69.62-55.26,110.94-55.26,110.94,26.61,48.11,109,46.34,109,46.34-26.81-51.63-8-131.48-8-131.48l4.67,2.12C502.43,753.6,546.45,768,546.45,768c52.84,15.2,109.87-44.33,109.87-44.33-55.46-17.55-98.62-87.33-98.62-87.33l4.81-1.8c69.62,76.2,110.94,55.26,110.94,55.26,48.11-26.61,46.34-109,46.34-109-51.62,26.81-131.48,8-131.48,8l2.13-4.67C693.55,588.75,708,544.73,708,544.73c15.2-52.84-44.33-109.86-44.33-109.86-17.55,55.45-87.33,98.61-87.33,98.61l-1.8-4.81c76.2-69.62,55.26-110.94,55.26-110.94-26.61-48.11-109-46.34-109-46.34C547.54,423,528.71,502.87,528.71,502.87ZM576.56,559A63.21,63.21,0,1,1,499,514.63,63.21,63.21,0,0,1,576.56,559Z"/><circle class="cls-4" cx="515.59" cy="1124.06" r="44.7"/><path class="cls-6" d="M589.51,1124.8l1.31-5c102.43-12.75,109.24-58.57,109.24-58.57,6.11-54.63-62.16-100.85-62.16-100.85-8,57.62-69.52,111.89-69.52,111.89l-4.5-3.54c63.41-81.44,35.83-118.65,35.83-118.65-34.32-43-115.27-27.36-115.27-27.36,35.1,46.39,30,128.27,30,128.27l-3-2.21C498.62,946.4,452.8,939.59,452.8,939.59,398.17,933.48,352,1001.75,352,1001.75c57.62,8,111.89,69.52,111.89,69.52l-4.43,2.57C378,1010.43,340.75,1038,340.75,1038c-42.95,34.31-27.36,115.26-27.36,115.26,46.39-35.1,128.28-30,128.28-30l-1.32,5c-102.42,12.75-109.23,58.56-109.23,58.56-6.11,54.64,62.16,100.86,62.16,100.86,8-57.62,69.52-111.89,69.52-111.89l2.57,4.43c-63.41,81.44-35.83,118.66-35.83,118.66,34.32,42.95,115.27,27.36,115.27,27.36-35.1-46.39-30-128.28-30-128.28l5,1.31c12.75,102.43,58.56,109.24,58.56,109.24,54.64,6.11,100.86-62.16,100.86-62.16-57.62-8-111.89-69.52-111.89-69.52l4.43-2.58c81.44,63.42,118.65,35.83,118.65,35.83,43-34.31,27.37-115.26,27.37-115.26C671.4,1129.94,589.51,1124.8,589.51,1124.8Zm-47.31,56.6a63.21,63.21,0,1,1,30.73-84A63.22,63.22,0,0,1,542.2,1181.4Z"/><path class="cls-7" d="M36,2072a11,11,0,0,1-11-11l-.57-366.43a11,11,0,0,1,2.07-6.45L95,1593.06,92.92,248.67,22,248.78a11,11,0,0,1-9.8-16L122.27,17A11,11,0,0,1,132,11h.12a11,11,0,0,1,9.69,5.8L257.45,232.22a11,11,0,0,1-9.67,16.21l-70,.11,2.11,1344.91L240,1693.29a11.05,11.05,0,0,1,1.58,5.66l.57,361.74a11,11,0,0,1-7.76,10.52,10.68,10.68,0,0,1-3.24.5,11,11,0,0,1-9.1-4.82l-89-130.72-88,131A11,11,0,0,1,36,2072Z"/><path class="cls-2" d="M132.07,22,247.76,237.43l-81,.12,2.14,1359L230.6,1699l.57,361.73L133,1916.53,36,2061l-.57-366.43,70.64-98-2.13-1359-81.9.13L132.07,22m0-22h-.23a22,22,0,0,0-19.37,12L2.4,227.78a22,22,0,0,0,19.6,32h0l59.9-.09L84,1589.52l-66.48,92.2a22,22,0,0,0-4.15,12.9L14,2061.05a22,22,0,0,0,40.26,12.23l78.91-117.48L213,2073.09a22,22,0,0,0,18.19,9.62,21.72,21.72,0,0,0,6.49-1,22,22,0,0,0,15.51-21l-.57-361.74a22,22,0,0,0-3.16-11.31l-58.55-97.24L188.8,259.52l59-.09A22,22,0,0,0,267.14,227L151.45,11.59A22,22,0,0,0,132.07,0Z"/><path class="cls-4" d="M205.47,330l.44,1207.83,614.3-.22-.44-1207.92-95.27-95.2L302,233.66Zm542.08,792c.05,126.91-102.8,229.83-229.7,229.87S288,1249.08,288,1122.17,390.77,892.35,517.68,892.3,747.5,995.1,747.55,1122Zm3.88-550.47c.05,129.17-104.62,233.91-233.78,234s-233.91-104.62-234-233.78,104.62-233.92,233.78-234S751.39,442.37,751.43,571.53Z"/><polygon class="cls-2" points="132.07 41.15 22 256.93 103.9 256.8 103.93 278.48 166.79 278.48 166.76 256.7 247.76 256.57 132.07 41.15"/><polygon class="cls-6" points="132.07 22 22 237.78 103.9 237.65 103.93 259.33 166.79 259.33 166.76 237.55 247.76 237.43 132.07 22"/><polygon class="cls-2" points="106.03 1566.61 35.38 1664.58 35.96 2031.01 133.01 1886.53 231.17 2030.7 230.6 1668.96 168.9 1566.51 137.38 1616.99 106.03 1566.61"/><polygon class="cls-5" points="106.03 1596.61 35.38 1694.58 35.96 2061.01 133.01 1916.53 231.17 2060.7 230.6 1698.96 168.9 1596.51 137.38 1646.99 106.03 1596.61"/></symbol></defs><title>final logo 2</title><polygon class="cls-8" points="133.54 -393.46 1275.9 -1418.03 1329.98 -1357.73 1434.21 -1606.15 1179.25 -1525.8 1233.93 -1464.83 91.57 -440.26 -37.97 -419.19 -345.99 -142.93 -159.72 -179.33 -215.66 2.39 88.42 -270.33 133.54 -393.46"/><g class="cls-9"><path class="cls-2" d="M-351.73,1321.29a18,18,0,0,1-18-18l-.08-83.18a18,18,0,0,1,5.26-12.73,18,18,0,0,1,12.72-5.29l773.59-.74a18,18,0,0,1,18,18l.08,83.18a18,18,0,0,1-18,18Z"/><path class="cls-2" d="M421.76,1219.37l.08,83.18-773.57.74-.08-83.18,773.57-.74m0-36h0l-773.57.74a36,36,0,0,0-36,36l.08,83.18a36,36,0,0,0,10.57,25.44,36,36,0,0,0,25.43,10.52h0l773.56-.74a36,36,0,0,0,36-36l-.08-83.18a36,36,0,0,0-36-36Z"/><path class="cls-2" d="M-273.35,1211.4a19,19,0,0,1-13.43-5.56,19,19,0,0,1-5.57-13.43L-292.8-15.42a19,19,0,0,1,5.58-13.45l96.47-96.38a19,19,0,0,1,13.43-5.56l422.59.87a19,19,0,0,1,13.39,5.56l95.27,95.2a19,19,0,0,1,5.57,13.43l.44,1207.92a19,19,0,0,1-19,19Z"/><path class="cls-2" d="M-177.32-111.81l422.55.87,95.27,95.2.44,1207.92-614.29.22L-273.8-15.43l96.48-96.38m0-38a38,38,0,0,0-26.86,11.12l-96.47,96.38A38,38,0,0,0-311.8-15.42l.45,1207.83a38,38,0,0,0,11.14,26.87,38,38,0,0,0,26.86,11.12h0l614.3-.22a38,38,0,0,0,38-38L378.5-15.75a38,38,0,0,0-11.14-26.87l-95.27-95.2a38,38,0,0,0-26.78-11.12l-422.55-.87Z"/><polyline class="cls-3" points="-353.69 1219.71 427.33 1221.07 427.97 1310.53"/><circle class="cls-4" cx="36.29" cy="230.16" r="44.7"/><path class="cls-5" d="M49.45,157.41l-4.67-2.13C49.43,52.17,5.4,37.76,5.4,37.76c-52.83-15.2-109.86,44.33-109.86,44.33C-49,99.64-5.85,169.42-5.85,169.42l-4.24,3.84C-79.72,97.07-121,118-121,118c-48.11,26.61-46.34,109-46.34,109,51.63-26.8,131.49-8,131.49-8l-2.69,2.62C-141.69,217-156.1,261.05-156.1,261.05c-15.21,52.83,44.32,109.86,44.32,109.86,17.55-55.45,87.34-98.61,87.34-98.61l1.79,4.8c-76.2,69.63-55.26,111-55.26,111,26.61,48.11,109,46.34,109,46.34-26.8-51.63-8-131.49-8-131.49L27.81,305C23.16,408.14,67.19,422.56,67.19,422.56c52.83,15.2,109.86-44.33,109.86-44.33-55.46-17.55-98.62-87.33-98.62-87.33l4.81-1.8c69.62,76.2,110.94,55.26,110.94,55.26,48.11-26.61,46.35-109,46.35-109-51.63,26.81-131.49,8-131.49,8l2.13-4.67c103.11,4.65,117.52-39.37,117.52-39.37,15.2-52.84-44.32-109.87-44.32-109.87C166.81,144.86,97,188,97,188l-1.79-4.81C171.43,113.59,150.5,72.27,150.5,72.27c-26.61-48.11-109-46.34-109-46.34C68.27,77.55,49.45,157.41,49.45,157.41Zm47.84,56.15a63.21,63.21,0,1,1-77.59-44.4A63.21,63.21,0,0,1,97.29,213.56Z"/><circle class="cls-4" cx="36.32" cy="778.6" r="44.7"/><path class="cls-6" d="M110.24,779.34l1.32-5C214,761.63,220.79,715.81,220.79,715.81,226.9,661.17,158.63,615,158.63,615c-8,57.62-69.52,111.89-69.52,111.89l-4.5-3.54c63.41-81.44,35.83-118.65,35.83-118.65C86.12,561.7,5.17,577.29,5.17,577.29c35.1,46.39,30,128.28,30,128.28l-3-2.21C19.35,600.94-26.46,594.13-26.46,594.13-81.1,588-127.32,656.29-127.32,656.29c57.62,8,111.89,69.52,111.89,69.52l-4.43,2.57C-101.3,665-138.52,692.55-138.52,692.55c-42.95,34.32-27.36,115.27-27.36,115.27,46.39-35.1,128.28-30,128.28-30l-1.31,5c-102.43,12.74-109.24,58.56-109.24,58.56C-154.26,896-86,942.24-86,942.24c8-57.62,69.52-111.89,69.52-111.89l2.58,4.43c-63.42,81.44-35.83,118.65-35.83,118.65,34.31,43,115.26,27.37,115.26,27.37-35.1-46.39-30-128.28-30-128.28l5,1.31C53.29,956.26,99.11,963.07,99.11,963.07,153.74,969.17,200,900.91,200,900.91c-57.62-8-111.89-69.52-111.89-69.52l4.43-2.58c81.44,63.42,118.66,35.83,118.66,35.83,43-34.31,27.36-115.26,27.36-115.26C192.13,784.47,110.24,779.34,110.24,779.34Zm-47.31,56.6a63.21,63.21,0,1,1,30.73-84A63.22,63.22,0,0,1,62.93,835.94Z"/><path class="cls-4" d="M-273.8-15.43l.45,1207.83,614.29-.22L340.5-15.74l-95.27-95.2-422.55-.87Zm542.08,792c.05,126.91-102.79,229.83-229.7,229.87s-229.83-102.79-229.87-229.7S-88.5,546.89,38.41,546.84,268.23,649.63,268.28,776.54Zm3.88-550.47c0,129.17-104.62,233.91-233.78,234s-233.91-104.62-234-233.79S-91-7.67,38.21-7.71,272.12,96.91,272.16,226.07Z"/></g><use width="937.11" height="2083.01" transform="translate(518.69 776.65) rotate(21.12) scale(0.57)" xlink:href="#New_Symbol"/><path class="cls-10" d="M1076.62,1528.13l-71.57-.45-18.58,59.42-34.72-.22,77.06-235.07,32.42.21,66.09,236-34.72-.22Zm-63.43-26.45,56.6.36-25.55-95.93h-1Z"/><path class="cls-10" d="M1232.44,1440.94,1218,1440q-10.53-.07-17.66,6.12t-11.16,17.48l-2.73,124.71-33.57-.21,3.83-175,30.77.19,1.74,25.9q6.22-13.71,15.61-21.34a32.64,32.64,0,0,1,21.39-7.55,28.83,28.83,0,0,1,5.83.6,32.42,32.42,0,0,1,4.83,1.41Z"/><path class="cls-10" d="M1320.2,1370.63l-1,43.51,27.81.18-.51,23.45-27.81-.17-2.28,104.17q-.3,13.59,3.77,19.35a12.88,12.88,0,0,0,11,5.82,27,27,0,0,0,5.28-.46q2.48-.46,5.79-1.41l3,22.66a54.51,54.51,0,0,1-10.69,3.58,53.43,53.43,0,0,1-12.13,1.3q-19.25-.13-29.68-12.41t-9.85-38.64l2.28-104.18-23.53-.14.52-23.46,23.52.15,1-43.51Z"/><path class="cls-10" d="M1450.9,1593.41q-33.24-.21-51.55-24.27t-17.48-62.39l.17-7.6q.84-38.51,20.14-63.05t49.57-24.36q30.43.18,45.86,21.48t14.63,57l-.41,18.44-96.58-.61q-.6,26.85,8.84,43.58t29.66,16.84q14,.09,24.45-4.13a63.75,63.75,0,0,0,19.36-12.41l10.41,20.44q-9.08,9-23.78,15.06T1450.9,1593.41Zm.3-156.44q-14.49-.09-23.33,13t-11.45,34.79l63,.4.08-3.72q.43-19.74-6.46-32.08T1451.2,1437Z"/><path class="cls-10" d="M1587.74,1415.83l1.29,23.79a56,56,0,0,1,19.27-19.86q11.6-7,26.73-6.87,14.82.09,25.5,8.17t15.75,24.44q7.41-15.15,19.36-23.66t27.92-8.4q23.19.15,36,18.75t12,56.46L1769.35,1592l-33.57-.21,2.27-103.52q.6-27.35-6.08-38.3t-20.33-11a25.75,25.75,0,0,0-19.51,8.29q-8,8.37-11.92,22.09c.06,1.94.13,4,.19,6.07s.07,4.23,0,6.39l-2.4,109.67-33.41-.21,2.27-103.53q.57-26.35-6.25-37.81t-20.32-11.53q-10.86-.08-18.55,5.7a39.32,39.32,0,0,0-12.2,15.94l-2.87,130.87-33.56-.21,3.83-175Z"/><path class="cls-10" d="M1861.54,1371.6l-33.57-.21.69-31.38,33.57.21Zm-4.84,221-33.57-.21,3.84-175,33.56.21Z"/><path class="cls-10" d="M1996,1549.27a22.77,22.77,0,0,0-6.54-17.11q-6.77-6.92-26.15-15.61-27.25-10.36-40.65-22.42t-13-30.82q.45-20.22,17.29-34.35t43.34-14q27.48.18,43.92,15.89t15.3,37.87l-.35,1-32.25-.2a32,32,0,0,0-7-21.48q-7.29-9-20.12-9.11t-20.15,6.91a22.69,22.69,0,0,0-7.51,16.38q-.23,10,5.82,15.81t26.09,15q27.75,9.88,41.55,22.75t13.36,32.12q-.48,21.84-17.8,35.4t-45,13.39q-29.94-.2-46.78-16.72t-15.53-38.52l.35-1,31.1.2q.29,17,9.25,24.57t22.63,7.66q13.32.09,21-6.58A22.27,22.27,0,0,0,1996,1549.27Z"/><path class="cls-10" d="M2179.38,1225.76l98.89.62q40.11.25,61.55,6.58t32,18.09a60,60,0,0,1,14.08,28.41q3.48,16.65,2.72,51.49l-.71,32.33q-.78,35.54-8.6,51.77t-27.95,24.82q-20.13,8.6-52.31,8.38l-26.36-.16-3.27,149.49-98.19-.62Zm96.8,64.13-2.07,94.46q4.18.26,7.22.27,13.53.09,18.92-6.41t5.84-27.14l.67-30.49q.42-19-5.52-24.8T2276.18,1289.89Z"/><path class="cls-10" d="M2647.24,1390.36l-98.18-.62,1.41-64.51q.62-28.14-2.38-35.14t-13.73-7.07q-12.12-.07-15.57,8.39t-4.07,36.66l-3.78,172.42q-.58,27.06,2.5,35.33t14.51,8.35q11,.06,14.52-8.19t4.23-38.82l1-46.66,98.18.62-.31,14.47q-1.26,57.63-10.07,81.68t-37.54,42q-28.74,18-70.25,17.7-43.15-.27-70.8-15.8t-36.15-42.77q-8.51-27.23-7.31-81.79l2.38-108.45q.87-40.12,4.11-60.17t17.52-38.52q14.28-18.49,39.13-29t56.79-10.3q43.38.27,71.24,16.93t36.18,41.34q8.33,24.66,7.19,76.64Z"/><path class="cls-10" d="M2874.41,1394.31l-83.5-.53.36-16.5q.46-21.09-1.86-26.73t-12.12-5.69q-7.93-.06-12,5.08t-4.3,15.45q-.32,14,1.53,20.53t11.58,14.41q9.73,7.86,40.2,23,40.62,20,53.06,37.48t11.72,50.75q-.81,37.15-11,56t-33.41,28.91q-23.19,10.07-55.61,9.86-35.93-.22-61.21-11.39t-34.45-30q-9.16-18.85-8.32-56.92l.32-14.67,83.5.52-.43,19.26q-.53,24.54,2.45,31.89t12.32,7.42q10,.06,14.1-4.85t4.42-20.72q.48-21.78-4.53-27.32-5.25-5.54-54.1-32.9-41-23.17-49.69-41.93t-8.13-44.42q.79-36.45,11-53.71t33.82-26.5q23.64-9.26,54.67-9.06,30.78.19,52.19,8t32.67,20.5q11.27,12.69,13.48,23.48t1.71,33.71Z"/><path class="cls-11" d="M1069.51,1521.71l-71.8-1-18.19,60.4-34.83-.49,75.5-238.91,32.52.46,68.11,240.92-34.83-.49Zm-63.84-27.43,56.78.8-26.36-97.94-1,0Z"/><path class="cls-11" d="M1225.15,1434.07l-14.52-1q-10.56-.15-17.67,6.1t-11.06,17.73l-1.78,127-33.67-.47,2.5-178.29,30.86.43,2,26.4q6.13-13.92,15.49-21.62a32,32,0,0,1,21.4-7.53,28.3,28.3,0,0,1,5.85.66,32.13,32.13,0,0,1,4.85,1.47Z"/><path class="cls-11" d="M1312.63,1363.11l-.62,44.33,27.9.39-.34,23.89-27.89-.39-1.49,106.12q-.2,13.85,3.93,19.75a13.07,13.07,0,0,0,11.06,6,26.45,26.45,0,0,0,5.29-.42q2.49-.45,5.8-1.4l3.14,23.12a53.42,53.42,0,0,1-22.85,4.79q-19.3-.27-29.87-12.86T1276.51,1537l1.49-106.11-23.6-.34.33-23.89,23.61.33.62-44.32Z"/><path class="cls-11" d="M1581.36,1411.21l1.47,24.25a55.47,55.47,0,0,1,19.19-20.08q11.57-7,26.76-6.8,14.85.21,25.64,8.52t16,25q7.3-15.39,19.24-24t27.93-8.34q23.28.33,36.3,19.38t12.48,57.61l-1.47,105.29-33.68-.47,1.48-105.46q.39-27.84-6.38-39.06t-20.48-11.42a25.25,25.25,0,0,0-19.51,8.3q-8,8.46-11.79,22.41.12,3,.24,6.19t.07,6.51l-1.56,111.72-33.51-.47,1.48-105.46q.38-26.85-6.56-38.58t-20.47-11.9q-10.9-.15-18.57,5.67a39.12,39.12,0,0,0-12.12,16.15l-1.87,133.3-33.67-.47,2.5-178.29Z"/><path class="cls-11" d="M1855.68,1368.25l-33.68-.47.45-32,33.67.48Zm-3.16,225.09-33.67-.47,2.5-178.29,33.67.47Z"/><path class="cls-11" d="M1992,1550.3a23.71,23.71,0,0,0-6.69-17.48q-6.84-7.1-26.35-16.11-27.44-10.76-41-23.15t-13.26-31.5q.3-20.6,17.08-34.86t43.37-13.9q27.57.39,44.18,16.52t15.64,38.71l-.34,1-32.36-.45a33.3,33.3,0,0,0-7.2-21.94q-7.38-9.25-20.26-9.43t-20.15,6.88a22.92,22.92,0,0,0-7.42,16.63q-.15,10.21,6,16.15t26.29,15.45q27.91,10.28,41.85,23.5t13.65,32.82q-.3,22.25-17.59,35.93t-45,13.29q-30-.42-47.05-17.38t-15.88-39.37l.34-1,31.2.43q.42,17.32,9.47,25.11t22.76,8q13.37.18,21-6.55A22.46,22.46,0,0,0,1992,1550.3Z"/><path class="cls-12" d="M2171.74,1222.67l99.2,1.39q40.23.56,61.79,7.17T2365,1249.9a62.53,62.53,0,0,1,14.33,29q3.63,17,3.13,52.49l-.46,32.93q-.51,36.21-8.23,52.68t-27.85,25.08q-20.13,8.59-52.41,8.14l-26.44-.37-2.14,152.28-98.5-1.38Zm97.59,66.07L2268,1385c2.81.19,5.22.3,7.25.33q13.56.2,18.92-6.39t5.66-27.6l.43-31.06q.27-19.39-5.73-25.31T2269.33,1288.74Z"/><path class="cls-12" d="M2642.33,1394l-98.5-1.39.92-65.72q.4-28.66-2.66-35.82t-13.82-7.3q-12.17-.17-15.56,8.43t-3.8,37.32l-2.46,175.63q-.39,27.57,2.77,36t14.62,8.61q11,.16,14.51-8.22t3.94-39.52l.67-47.53,98.5,1.38-.21,14.73q-.83,58.71-9.47,83.15t-37.34,42.53q-28.68,18.08-70.33,17.5-43.28-.62-71.14-16.66t-36.59-43.84q-8.74-27.81-8-83.39l1.55-110.48q.57-40.86,3.67-61.27t17.28-39.12q14.17-18.72,39-29.23t56.89-10.07q43.52.61,71.59,17.8t36.62,42.39q8.53,25.2,7.79,78.14Z"/><path class="cls-12" d="M2870.23,1399.72l-83.76-1.17.24-16.82q.3-21.48-2.08-27.24t-12.2-5.9q-7.95-.1-12,5.09t-4.19,15.71q-.21,14.25,1.69,20.93t11.73,14.76q9.82,8.09,40.5,23.7,40.89,20.67,53.52,38.59t12.14,51.8q-.53,37.85-10.63,57t-33.29,29.2q-23.19,10.07-55.71,9.61-36-.5-61.49-12.07T2679.9,1572q-9.33-19.27-8.78-58.06l.21-14.94,83.76,1.17-.27,19.62q-.36,25,2.7,32.51t12.41,7.65q10.07.13,14.11-4.83t4.28-21.08q.3-22.18-4.76-27.86-5.31-5.68-54.52-33.94-41.33-23.94-50.17-43.1t-8.5-45.32q.52-37.14,10.6-54.63t33.72-26.75q23.66-9.24,54.77-8.81,30.87.43,52.41,8.56t32.93,21.14q11.41,13,13.71,24t2,34.37Z"/><path class="cls-11" d="M1445.46,1591.1q-33.35-.48-51.91-25.12t-18-63.71l.11-7.75q.55-39.21,19.72-64.08t49.54-24.44q30.54.43,46.17,22.24t15.11,58.23l-.26,18.78-96.89-1.36q-.39,27.36,9.2,44.47t29.88,17.39q14,.2,24.49-4a62.35,62.35,0,0,0,19.33-12.5l10.6,20.91q-9,9.1-23.73,15.16T1445.46,1591.1Zm-.91-159.39q-14.52-.21-23.29,13.1T1410,1480.17l63.22.89,0-3.79q.29-20.1-6.72-32.73T1444.55,1431.71Z"/><path class="cls-7" d="M787.75,1087.43c3.21,0,3.22-5,0-5s-3.23,5,0,5Z"/><path class="cls-7" d="M775.23,1084c3.22,0,3.22-5,0-5s-3.22,5,0,5Z"/></svg>